<mxfile host="Electron" agent="Mozilla/5.0 (Windows NT 10.0; Win64; x64) AppleWebKit/537.36 (KHTML, like Gecko) draw.io/24.7.5 Chrome/126.0.6478.183 Electron/31.3.0 Safari/537.36" version="24.7.5">
  <diagram name="第 1 页" id="T8BPcN7xdGw2k3NyOJdA">
    <mxGraphModel dx="1114" dy="656" grid="1" gridSize="10" guides="1" tooltips="1" connect="1" arrows="1" fold="1" page="1" pageScale="1" pageWidth="827" pageHeight="1169" math="0" shadow="0">
      <root>
        <mxCell id="0" />
        <mxCell id="1" parent="0" />
        <mxCell id="7tszo_fawbrAFX8Rzfel-6" style="edgeStyle=orthogonalEdgeStyle;rounded=0;orthogonalLoop=1;jettySize=auto;html=1;entryX=0;entryY=0.5;entryDx=0;entryDy=0;" edge="1" parent="1" source="7tszo_fawbrAFX8Rzfel-2" target="7tszo_fawbrAFX8Rzfel-5">
          <mxGeometry relative="1" as="geometry" />
        </mxCell>
        <mxCell id="7tszo_fawbrAFX8Rzfel-2" value="GET&lt;div style=&quot;font-size: 16px;&quot;&gt;&lt;br style=&quot;font-size: 16px;&quot;&gt;&lt;/div&gt;&lt;div style=&quot;font-size: 16px;&quot;&gt;url?&lt;/div&gt;" style="rounded=0;whiteSpace=wrap;html=1;fontSize=16;align=left;fillColor=#dae8fc;strokeColor=#6c8ebf;" vertex="1" parent="1">
          <mxGeometry x="110" y="100" width="170" height="70" as="geometry" />
        </mxCell>
        <mxCell id="7tszo_fawbrAFX8Rzfel-1" value="&lt;font style=&quot;font-size: 16px;&quot;&gt;k=v&amp;amp;k=v&amp;amp;k=v&lt;/font&gt;" style="rounded=0;whiteSpace=wrap;html=1;fillColor=#e1d5e7;strokeColor=#9673a6;" vertex="1" parent="1">
          <mxGeometry x="160" y="130" width="110" height="30" as="geometry" />
        </mxCell>
        <mxCell id="7tszo_fawbrAFX8Rzfel-7" style="edgeStyle=orthogonalEdgeStyle;rounded=0;orthogonalLoop=1;jettySize=auto;html=1;entryX=1;entryY=0.5;entryDx=0;entryDy=0;" edge="1" parent="1" source="7tszo_fawbrAFX8Rzfel-3" target="7tszo_fawbrAFX8Rzfel-5">
          <mxGeometry relative="1" as="geometry" />
        </mxCell>
        <mxCell id="7tszo_fawbrAFX8Rzfel-3" value="POST&lt;div style=&quot;font-size: 16px;&quot;&gt;&lt;br style=&quot;font-size: 16px;&quot;&gt;&lt;/div&gt;&lt;div style=&quot;font-size: 16px;&quot;&gt;请求体&lt;/div&gt;" style="rounded=0;whiteSpace=wrap;html=1;fontSize=16;align=left;fillColor=#dae8fc;strokeColor=#6c8ebf;" vertex="1" parent="1">
          <mxGeometry x="380" y="100" width="170" height="70" as="geometry" />
        </mxCell>
        <mxCell id="7tszo_fawbrAFX8Rzfel-4" value="&lt;font style=&quot;font-size: 16px;&quot;&gt;k=v&amp;amp;k=v&amp;amp;k=v&lt;/font&gt;" style="rounded=0;whiteSpace=wrap;html=1;fillColor=#e1d5e7;strokeColor=#9673a6;" vertex="1" parent="1">
          <mxGeometry x="440" y="130" width="110" height="30" as="geometry" />
        </mxCell>
        <mxCell id="7tszo_fawbrAFX8Rzfel-15" style="edgeStyle=orthogonalEdgeStyle;rounded=0;orthogonalLoop=1;jettySize=auto;html=1;entryX=0;entryY=0.5;entryDx=0;entryDy=0;" edge="1" parent="1" source="7tszo_fawbrAFX8Rzfel-5" target="7tszo_fawbrAFX8Rzfel-14">
          <mxGeometry relative="1" as="geometry" />
        </mxCell>
        <mxCell id="7tszo_fawbrAFX8Rzfel-5" value="1、直接写变量名&lt;div style=&quot;font-size: 16px;&quot;&gt;2、@RequestParam&lt;/div&gt;&lt;div style=&quot;font-size: 16px;&quot;&gt;3、POJO&lt;/div&gt;" style="rounded=0;whiteSpace=wrap;html=1;align=left;fontSize=16;fillColor=#f8cecc;strokeColor=#b85450;" vertex="1" parent="1">
          <mxGeometry x="240" y="240" width="170" height="70" as="geometry" />
        </mxCell>
        <mxCell id="7tszo_fawbrAFX8Rzfel-13" style="edgeStyle=orthogonalEdgeStyle;rounded=0;orthogonalLoop=1;jettySize=auto;html=1;entryX=0;entryY=0.5;entryDx=0;entryDy=0;" edge="1" parent="1" source="7tszo_fawbrAFX8Rzfel-8" target="7tszo_fawbrAFX8Rzfel-12">
          <mxGeometry relative="1" as="geometry" />
        </mxCell>
        <mxCell id="7tszo_fawbrAFX8Rzfel-8" value="POST&lt;div style=&quot;font-size: 16px;&quot;&gt;&lt;br style=&quot;font-size: 16px;&quot;&gt;&lt;/div&gt;&lt;div style=&quot;font-size: 16px;&quot;&gt;请求体&lt;/div&gt;" style="rounded=0;whiteSpace=wrap;html=1;fontSize=16;align=left;fillColor=#dae8fc;strokeColor=#6c8ebf;" vertex="1" parent="1">
          <mxGeometry x="120" y="440" width="170" height="70" as="geometry" />
        </mxCell>
        <mxCell id="7tszo_fawbrAFX8Rzfel-11" style="edgeStyle=orthogonalEdgeStyle;rounded=0;orthogonalLoop=1;jettySize=auto;html=1;" edge="1" parent="1" source="7tszo_fawbrAFX8Rzfel-9" target="7tszo_fawbrAFX8Rzfel-10">
          <mxGeometry relative="1" as="geometry" />
        </mxCell>
        <mxCell id="7tszo_fawbrAFX8Rzfel-9" value="&lt;font style=&quot;font-size: 16px;&quot;&gt;json&lt;/font&gt;" style="rounded=0;whiteSpace=wrap;html=1;fillColor=#fff2cc;strokeColor=#d6b656;" vertex="1" parent="1">
          <mxGeometry x="180" y="480" width="110" height="30" as="geometry" />
        </mxCell>
        <mxCell id="7tszo_fawbrAFX8Rzfel-10" value="" style="shape=image;verticalLabelPosition=bottom;labelBackgroundColor=default;verticalAlign=top;aspect=fixed;imageAspect=0;image=data:image/png,iVBORw0KGgoAAAANSUhEUgAAANUAAAD8CAIAAABvgXYqAAAenElEQVR4Ae1dvW4cubKewK+gl9roWoBzAXqDmwg4oSE4EgY32MTAZoYUzSQLGJCwoWApkIA1MD6KD2wMZCXXJzkOroO+IIssFskih/3f01OG4akuFotk8XOxOf01Z1Fxf25ubrY/tvTvzc0NZyg6iUCrCCzY2oI/Niyi7DwCefz9ebaAP2f/I/mv89iLw6rK4u+fv//2jz9hFZb1V9DSRwSy+Pvx55ngr4+oi08bgTz+ttu/zs7+UhsRyX82YvLZZQR24c8uwYK/LqMuvmwEkvj78x965/Ffv/+tv4gR/NmIyWeXEUjiz3z5J/mvy2iLrzACu/An939hxOS6ywjk8Sf73y5jLb7iCGTxZxdf2f/GgRNNJxHI4u+HPP/oJMjiJBmBPP4cBUH2v8kQSkGLCAj+WgRPqraOQBJ/N9Gf1m2JA4lAGAEef5vNJjSUa4lADxEQ/PUQVHFZHAHBX3GoxLCHCAj+eghqFy5fvb7sws3UfQyOv+1qdbp6rh6uj5Z7eo/5vD5ZrV+qx+WHi4dm03v//vLd5+r54/rNx+/g4dXrS/yLmkCoqgptYgF7Ytx+vnn1/gsqJysI/mpPTR/4w05g2gMBL9FgpyD4y4Zoxvnv/nyxWJzfZ4evC+P8h3UQcJDhUF8uCP7KYwWWL7enuBbTdfnl9vTow5H+q5Zs8+d5fRIoNxdgdnK7fbhW9ie326qCJf5xCcbXj7b+drUCn8ZMW56ubi+OPpyunqHULqxxW9YL8/l8dVyIv7gyXU+hFIEYG89Jk11//+/H16enr//+5Q/4l9b+CLQ/vz89PX3/6ZuySt+kqioef2aZA+vt6nr9osTHpbr3gj/eHdjL7enJyuEY8HdkbtEelwpbqpbDt8KWwZlC7fVjtbk4WV1oCIJxsi3TftEHH8OwaoA2CsfGiTBsY5LXWfz9R2Eqwp8G1dcAfxqUIf5YZRwGHn/qBl8nKpe6qsqmujgvqmRJLSnUfNl2YLtaIf404J7XJ9rDw7W+TLdlPZR88jEMawb4g60G/kutY2jGdan9xOUs/gbqewJ/pnWzCkPa21wEIMMuqvynl13UuFRH8EfW9CObHSsDuBh/PqDRc/cCRRV4B1TtNbZKwjQR/FlUqdsvcy/4vF46POFS61ZStRbbBRQW8QL8md2PjoyrzuNP+TerdtBWIrDF+49EfaVGwMVCplZR0bfL48Xi+ApvpIsq9W00BfxVFe4JTk8s/l42jyu9mYClFjcoVbwnCBZKe4PI5j+ygl+s1P5GLcEJ/FVMW5n5aLP/QLcx7FCDNg0F9d/j/K5h5b6qTQN/fY1u//wi2ui2A5VtxqP+e7ydGvwS528I/6XNTDerSwFHF2L0Ru8RWRktWeHubdF3k2zd/pSS//qLrXjeHQHB3+4YiUV/ERD89Rdb8bw7AoK/3TESi/4iIPjrL7bieXcEBH+7YyQW/UVA8NdfbMXz7ggMjr895f8RLkyv/NPdM9abxSjEQcFf2XwOgL+XT29eX746+0Qf0N6/t7x8qv98Y79/Xl9ZMpoZhi5CWn8FPi25/91nN9jnj2vlhHD0BX8uOpOTSvBXzD9g+M8aKO8+fnpDcKYgYvFx//7SoEpZ3hiS9ecbH69f3r2+uSKvlVSfbxwWSUypZ1QfBv5wuE7Q/CvL9rPsAaC0GJ4fURICgWXKVB4vEJgKlo6FhBpk+yHXQXNOdS+QlLXcmFJ0YtkPBH+u477Ugn/w/epMvZGk0hXF34t5O6mq1MtKiEXXrP+S0f17lQ4NjMCIxZ/fivM2hpRdf3nubh/8Z0LFs7R4R/VDDGn+M+FcPVwDgdQxqTTDWSsNme9xeX2xVDQ+AyCLSxXrh2vblo68ulT8ZzsNAUGa/h+wJgWffAwTFZPIsAA19dRlsHpiqqP4e/64VjkV1l+LbGXw/sYoMZUmetS3Oos/nrvbK/9ZUZ6imSYEVZu9PBtW+ahgt7k4uX1U3H0DR8r/01mTMEwDOPqE6oL8x08VH0PeNsh/1kijzS7EVqk/cf19+fTGGgT4wwUaV3B1T0mwiLLneaiLLP4G6gSBl6bcAbYcz0+x8B3/DzplOH+GQG866ikVYh5uVT5TaVIBcauJhkgpZfBHW+kIf7ViyOS/L+9e2zs/xpW64buvKrdNsVsNBlV2sYa7T+OM3k0y/ntXTQR/lv/s1sRgobTI0FnNRAWTGatUN3xLvUArV/bVpMAtpUxTvqpqgay/6qbTy7jsvBTvP9jaShni78u71+EOV0HNproK8x/xSPKfSpy4/8D8R28lqUx8+GKfxOmJ4G95bd6hJNNsdyQfjpa36p1LBcHNoyYt+y9Qskp9e2e8qbyIac8u1h+Y/YfZ7thFGfclR9cX5L07f3bwqsX+Q28vMHUpQcEuympm26tAY4ztRhg7oXcqiLmqsneK/lctzrNdiImDSOyTOD0V/O3pWRzRXM1Q0StxWvA3Q8R0O6ReidNTwF+34RJv+xQBwd8+zdb8+ir4m9+c7tOIBH/7NFvz66vgb35zuk8jEvzt02zNr6+Cv/nN6T6NaHD8teM/40Nh+jSMVSYmgT5/S5g0U7cbFzCs1HML+5S2WS+GqgXPnb9fnYWPB+t2YM/wZ4bHslFYZRiPfcMfEJjDp2TwVC2ce3iqRknOavRAlsZHxhAQ1i2rNE/wgrYEf3gKKiJsmvgrfnhveAM0/2lABKRo80j3/acg9yjwnX260ifrY0g0+NZXH/2z8Fm3rBLAF7VVVfuLPxcbKpEn/XhQM2U1+zwrSyalHpBhikp1qtrGHhZNKAWKEQhHQJNF3HXA8Vs1rdUe7mYJODUPZas0KabRqXsqyTGkaEOE9tc+S4TxuFUKJTpvUUxrSEVu67SFAe5CyK6/PHe3c/4zZTc5EpQ9jVSNMiSlsqkuVKpTnQ3CHINa4wy4ME7p+XdUK03AAeBSpUOtx7uuNRt8DHkXISkLrHz82Zo+/qzWw59Vsm5ZpYJssP5aJ60/s/jjubud858d5vRwXp7V6fUkIQHbiqbAEGq6Xqg0p0pCiCybn97/oYyC8WNSIIWXlW06NEwtR+uCZkr/ZWOYqFwHE/PCXyIgXasD/IF7HxNBkyHUdHGo7At/dikP+tTbpeCvt9Aax251U2nPcJIp/bjp+mvpzW6pdf51inVt4arqOmNznuolynUPhS7efySDvFf4u3urfgOl/JjV7PqbDEnnBW61pdnFLXZ28cWv+sxP0Gg9q9SnOi+v7S/YWLc8/rzl3rblMEfxN9z+gydFB6+UvzJvh6jXRCwp2r0a53jOhC9N6NNQRd3bscpEW5nZf758U++I84ngLzOkxkXe+tvYi1SsE4G788Xx5bcaNQR/NYIlpjsi8O3y+M0lvkC9w1gXzxh/JcMXm5EjIPgbeQIOvHnB34EDYOThC/5GnoADb17wd+AAGHn4gr+RJ+DAmxf8HTgARh7+4PhrzRMeOWCp5luPi+H/pdri9Z1x8nj3/WgFfw3iyhEmBH8NAlkN//uXTeYJng47BmijkXZYqQ7+ivkHkv/cDA39+6vuTDTLWFF9caQE5CRbRsLJ7VbRSz/YA3QdBQHPWavIz1pbM02cVj9rvdInopIj2Mix0j7/wLYI6IdGLfnviBzr5oLnS835z8qPIxC4V0D0OmuPwA/f9vAbn/5Vdv0diP/s0knAubKwU0C0BBbAJZ4nqSNMmX9IlLK/aq4tbBOK0rzcqKITOJQXaFc815rlPyt31lvz6S3jPxPeMjkoUlNd4H0iS7tv3pGxa2bxNxD/mcQAT6n3jh+lpCmTFwkcSeoCpjSkQHd8JaQrnVkNUu2Jv+6SpLQjexi6gzLh/6nOtsdfEf/ZIzM7FiDsMyBoVCZh3B8xi7+BhkHWWZx73TSuqkgO1eoAjgp/FI6m1xQ9OBAHOL2euku67ltr6oHKHeDPNpH9FPxlw9NVodmRaHd0mg044mZC/CmiKN72OQ/0PHubsRzgKP68o54d19q5apH/ivcf8Tjpu+j++ovH7hblv7qcZKYnvammkP/IAnqhj3c2OwAmL9rdgFkuMS9ipnRATO4/XvTOxsOf9ws2/v7DRJ5ikb4YirhPzVBP+w/TXAn+anOSU0PpQz8J/HEDC5KcvWPjTEWXjUBtTnLWW8eFk8WfXhPNOfcq22Gq6zgAs3dXn5M8ZEimi78hoyBtjRUBwd9YkZd2VQQEf4KDMSMg+Bsz+tK24E8wMGYEBH9jRl/aFvzlMOCdaOEfcJGrJmXFERgcf034f7tHYx6a+U8pdlcjFvCwlfx4qSp79foSTVJya94etnCIguDPzLrgbxT4zx1/+vHr+f3u2Kbwl1qC0aPkPwxFA2Fw/LF9dPxn7zmbYxtYToDS2Ef+inNgZdarOrj36lidR1eAP9ZDas2leraiKAsjkMXfQPxnj2rwvF7eqvN31fNfZPU5TpTmnqhnwS1u9Sp+XEzEKM5SMlNNVMURyOJvKP6zzXPwjgX03SdfebxUKKLGxcMFQ35cjJPU4kuxyFQTVXEEsvgr9tKNoVmFgYrsJUXff2v8+e5KrgRwJVFqYDMF/L3cXqzw0EIk0wfvIiH/yhhQznNm3MX7j9hHJvlBUVzF07RhPnuO5nwxAfxtHzbrpTnP2VtnKS/6QU+Cznx2L6I5zztW4Zb7D5h5NvmxSg8pCvo1TuL26h7MxQTwN+1Yp3CW0uNoFPTflh8Ej/UOSxD8JeebXWRxUU5WswV3b5t/72N9zP9T8Df/OZ7yCAV/U56d+fdN8Df/OZ7yCAV/U56d+fdN8Df/OZ7yCAV/U56d+fdN8NfjHAffEQaXqYbBrNA45STQ49dGsRBY0ss+ekL9j/H+JcN/zjzqDXqrzgHCB3GujFW64kCCs4jqNBo4sLSuxWKxwJ87M+ejeQey0MkGNnVGg40g8lCoKnBb9DvkLB+RuMJ2lID6oGNgREtNNWaYd+cqEOpPA57b4PlvLvgLYx1NDExePIWoQSAEmuBSm/WOvwBw7KVSRsMES6BahjHBsrQg+MPYqHOiXD5DNSc8Xx2HsU5PDOIJhcAl6GkGQtlaDoo/bJ0KpifpYTIxsb3PfA6OP6Yveil8XK30aUNkeSUUQMs50Ovvw635VWlLPlDrb6ik9Bk4ShrZrEwXlEqvI7ieJoxAXRhrBBbUotNJsUhluiZmu1CvMGiaXlJHbXpSGBPa3K77P54nzJ9drE+U/f7Td88qfRN7zjgw6RUF0KCK4TzD75Dbw8QdwtRRu+YAU6dUx5dbgJJjfaPWdyjYIRTGmuIPpxaF4I4QkQfg2NGtFsW0A+gmQCT2nDXGWlQojAmtsgt/PE+YPbtYg/IpwB+rDDpgzhMHzr1OVBz/FNn23lYjONUUPFulZvBDNkVOYdz2Lg0/hMJY4ywGrQSTSi8RBwjHoG77S9pc4I0W1e1JYUyCFiez/up3PrrFnz0o/OF612tKQVB2XjaLdcptPOt9gA9bQWCBQHuFNpiby3vSLCaTxZ96/wjvBTcX9r04Qnt2Sy2r1HFVFU/de0w01pHcbv8RucMpDOY7M+sw/fRfzqunKz/bGbGFgudIX2AR7QMqY3uq4fCnb6mzJMjp4g82DYYXTfcfF0vYqehf8tAReFyuYiXEhtxQ0mBxcl/7D0whOJEoQDcQoHgZCFxvQVfjbGdsFIXYbYueqFddw+8E1BsIx5ff4nacZgr4c73pXKJJtEPnTKw57zjTIASXmCCDqmgW6LnL0rOdaQdY/3FWxv82XLuMjonJ/fnO77Pmiz/zNp3dAjMRa66C10rUV/7p72swl6QEtnkWB6ylUpad7UwBx3aG9V/ck+Tzj+er4+MrfLGMbUTOP+XDItqBIjDf/DdQAKWZVhEQ/LUKn1RuGQHBX8sASvVWERD8tQqfVG4ZAcFfywBK9VYREPy1Cl/dyvSrkFTdEptU3b3TD44/hn/aadA8ggLruTX/Oc2BY9ujyhJsgU38RZ3z06IDzsk0JMFf/Xngpj+GC2poA6iMBTCjAE3JGRIybWsv5InhDx5a4NPeBiFsnv+K+Qcc/kp6SvHEPt1CAxDwMjRu2oGSTg5sMzj+2PGZZ2Xqd1YtSxnJz8uN/yTNHpZ69MHBlBhT/Dm3hp3KNm6VNfgHtkqNTwomqMZqIC8GBrFljYanbZrF34D8ZwM7hRj6xPbh+uhkRU6nJHwCVYQnRVssPly7XwqmtD9HSq07HSz/ua4TtI+XXQo4MEO0USE2Q597LWTxNxz/2aY9szvBkDqQoQqFzQUypW11TdA3rEFFylcJ1f4tSYHoGwWe/4zFdQWEVLikWkcZA1pkzff+M4u/4UaHC2iAkihveajahT+3QA83knxLFENUhlo0OwJAqQ2V863sUekk8GczWRy3EH/kTQ73ArkjQuOvMyhPNHeGfuKWqqp4/8FV3qmj2GLl2AMAjv4b2/ia3Xxj3378q0ngr3IbBdyCYEY0Cyi5QQTNya06NdqlQFhnry/IAQnObZBW2bj3u/+Im0zlM0QnVklZooERCvjGYZWxryeAv+Cer8W7kmMFExGTEtiOxaiC6mCMpSDgJevKKAv4xrnqY5RNAH/qRV3cJRzZlDZGMIZtMwMpLEIhtV+hXS7hG1P7KchTwN8U4iB9GCcCgr9x4i6tQgQEf4KEMSMg+Bsz+tK24E8wMGYEBH9jRl/aFvwJBsaMwOD4a8R/pr+F7qJFqVZO26Vk6DZ4+lsT33g8gPwWJhM+wR8TFFR1gL9vl8fZA6CwrcMUBH+5eU/ir8bPWt+dC/7SMR4cf2xXeKKAIpMqVsHparPGM/zwYd1yY9dfy4g+ud1CFcs2YN06pT1TUHUJ3armdpyZY39/ITxujB1aVVX356WWKQ/z1WfxNxD/2ZGjeCaVRgzwX4gBpTqbQ3xXeOCzmjCW/+xYW+onA9ZLZFDjWZfVdnW9fmky45qu+/0/UVVZgqOQoCKLv4H4z9iZShGxDGmUsvfUWagafypLGSIWpTorB36ROamcoTXYZElZ/upnbQx965F0pqb4699fn56eKP704aS5M9pqtjBD8yz+BhovWfuO8K2iBvizyy50O79pNauwX8Wuwi4XdhIByX/pME4Af5T/R0DjznwmuY2svxUxCA7Rh+FSBOMS/3JL3mZCNjUuxKom6UMybjX2H3L/l4zirt9fyFXsssyuiUcfLlaKC+iWYEN1vr6I9x9HSHV21YNfsHFbDZvntg8bxZq267Jp6GXzuDJ7HVXkL83cQOH807Jdhex/uQha3QTyn+3KPD9l8c3Oq+AvG54OCuX5Ry6Igr9cdKSs7wgI/vqOsPjPRUDwl4uOlPUdgUHxt9ls+h6P+N+vCAj+9mu+5tZbwd/cZnS/xiP426/5attb+kI7HnGUOrYhMIa2WWXjbs0Ef0miXuPA5CuqJyv2mUresri09RC+vHt9c199vzpbX2n6DkUV9iKDHihKGaA+FtD5/fvLd5+r54/rNx+/ozIvCP7y8UmUKr7MHuAPek+BSOVgbBn8IebwGBDWWPC3tM+Og9juwWUq/xX/wjST/xB/OH6KJCyloKQyGmB1XLJRQx0eLv4wHERQ/NPN+sQj9iEj4eJBUWkc3YtwwCwpweMaqoqal4AePJqC5tcwJELn1tEW9SGFhgNh2iK9DkV9KuGiybtLNEUhSnYKsQH2CKCJl50I2fW3a/6z+f6P5Qm3bisKByFII3rA6HH54fSEkpxN7tGljtZFiGGWAIuNIKELNJr3D2BSzg2D37lSh2EaWg11RdtF10UCG0O/JsVfZt0MABdcYsKjeZHKfpu1r7L465r/DPiLecKq123bikdO+feKLOgyEIGIruaR8gn/D/UOPbaZQEMvUUYBKr08b/0XTYAGtjsF2jbJJx9DYoCAo0Igg3kAuOASXaIeNaw3WloiZ/FX4qCOzbDPP7L482YdcaYHQ/inqXsyfbgvpQlSqKGMAo2R3xYt6VpGxNB0RWVoEMzQGFAFZrRHtCKVqU0Dedb4wy1qvP56+FPvlyDnniya+n2U09UtzZ0mxgG26KWTiSsHO0rhpu2mJq94/xE6QEihwGasGGrgiNZiK6aUYT/M64LHl9/ikmrW+DtdXtuTVc3i63YPQIHGHOY2CsEOWpGr7f2cih/vwWHOT43OrVv9B9x/BNgCSJUAK8YWzXlUZjAVqdR/ocRL0PPG3+43eaNYzUeRwRktomAKZBoLWgX1rBJLraC28Kl3FQR/Nkqz+6TgoDIMFDUoBAEI9AE08TKoxV3enae/P5ox/rhQiG5iERD8TWxCDqw7gr8Dm/CJDVfwN7EJObDuCP4ObMInNlzB38Qm5MC6I/ibxITj1xkpIehl8OVIUAqXJTZsxSGVM8Ff+kEtH0z1VMN/BMfbcdq6bcU+8jw5wM1O9Ow0iJ9hYE8MRfnzzav3X1A5inCY+NOPxQL8EbZVfibGwl8qNaIeAIeXrABDE/zlp7h2aXtMqAe79DlvugvJtooPZWPzHwsXUEJfaMKjclyKfY/NoEjwhyHqVYDjoL3fdMXD2pDwElEKYGlWOdKRBgIGDdfrOoeyMfURKyAEl0EFLA30wWWhWVBryMvs+tuak/zzuzqR9qcd0LD8ZwKgKLeZHGY7pj4jG6WxazQlLdNKu2U+hkw9xAoIwWX52rozjzJtj6fK4q8tJ/nXD30icoA/nrvbtq0ohAGeti/0VPsi/KlzV+ElN0qvihrKK/hxMXUCwAWXtAIWgTJzSYuoTL2NK2fx13XXBuU/B/jzx1KGP3sWr/2hB99Hx1eAD4oSzGS0JWoA+kBDL1MydTiuPF/8kVOjfU6oCngp/tR7Qyf+zzqk56t4/8G6oFsNakAxRFdhsAlKg+9caCmVqX9P/nZ5vFgcX9Glwivv/GLG+NM/AWKOenbviuP+A96AdLsQe/g9eSlTRZvS5fPR72r/EbSSwk0JXmldKgdNuEv1X6jJu57OQ01p3virGQzGHG8BmbJuVbjaxkLQEEUelcGM4gzl2CzwCZfqv1CCKM/at1cK/pIx9F9QT5p1VYBYCRyiHnEZGARrLi3FulSZke/eJonymVptigR/baInddtGQPDXNoJSv00EBH9toid120ZA8Nc2glK/TQQEf22iJ3XbRkDw1zaCUr9NBAR/baLXZV38eoUVsCX8SgWFzPcvWGuywkzwZ56nkaOr+ot4+7ZS/D/oMwCL/kvHgvoYplg9LkIN2Aj/j4a0A7k9Jso70b6tcvzFuQ3THgqBDdWnBiX4S0Wmob49JsobTrZVzD/I4C+V3rB7AbyCS8RiSg9+BH8Yzz4FeyCz+0lpPD0tPP9ZHZAan8nMKlM9bs8/gFUSMUQFkINlFMFKu4TIQyHwQ41Hl7P3fzx3V7NKv/745fc9oDpDYaAclP9M+H/kHEjdL+78Z6Tam/TmcbQUC+tWnZ5b/w8fQ8YPgglRyOIGUYVCYBbrqYZpeFRVFn88d1eDKsRfSHXWgwqVgL+B+M80rAGBlDn/2Sa/xJnMm4um+ONjSDtnZEAJ/oupjsIRoRaYoZ4K4HfK4KuqeZ9/ash/CluE52dZzQ4DCZKVW769N5hcvU4lhBTFUIyeWBP0ghpQn4HZRC6z+a/rPg7KvyffxeCSagZEikBDSaZoTI7MTwA0iE/x/iOoB5cUK0HyiyEFGKVm6BONUaCARrOJCPPFH+Ezr9ara0iBuP8wqRHPf+b2H8745Ha9+we32u8/ECgIHRQQLrgc06JYphqoG2vQ54jCjPE3YlSbNA34oP8iHMEdIo9eYgrEJqeJM+xeIAj+goCMc4mgQfwhsALYYf+wCgvToDpeYvWJCIK/iUzEgXZD8HegEz+RYQv+JjIRB9qNQfF3oDGWYacjIPhLx0ZK+o+A4K//GEsL6QgI/tKxkZL+IzAw/uDX5BeLBf9rnP2PV1qYVgQGxp8Z/N1bwd+0cDBWbwR/Y0Ve2lURGAN/9+epX4OVOTm0CGTxx3N3m/OfIbjDH7J0aJO6R+PN4o/n7jbnP2Nc1A+yLxaLN5fDHbSJbYswpQhk8ddPRyX/9RPXvfQ6Av4quf/bS6j00ukx8FdV8v1LL5O5h04Ff3s4aTPq8sD4k+cfM8JOF0MZGH9ddFl8zCgCgr8ZTeYeDkXwt4eTNqMu8/i7if7o74sX/yt/JAKdRiCJv6d/PdG/gr9Owy7OTARy+Nv+2OJfwN+MEr8MZRIREPxNYhoOthNJ/F39N6S8xdlfKgtK/jtYiPQ68CT+nv71tP2x/fuP3wR/vU7AgTsX/B04AEYefhZ///z97I+/YQsi6+/IEzXT5nP4+/uP334T/M104icyrBz+4P5PZ74zyX8TmbCZdSOHP8l/M5vsCQ4nh7+t3P9NcMbm1aUs/uT7l3lN9gRHI/ib4KQcUJeS+JPnHweEgvGGmsQfPP8Q/sF4U3MQLefw90QoWPD9i9CGJALdRiCJv4CBKvjrNu7iDSLA4+8gUr8McgIREPxNYBIOuAv/Dz/xU5/ZJEI0AAAAAElFTkSuQmCC;" vertex="1" parent="1">
          <mxGeometry x="128.5" y="550" width="213" height="252" as="geometry" />
        </mxCell>
        <mxCell id="7tszo_fawbrAFX8Rzfel-12" value="" style="shape=image;verticalLabelPosition=bottom;labelBackgroundColor=default;verticalAlign=top;aspect=fixed;imageAspect=0;image=data:image/png,iVBORw0KGgoAAAANSUhEUgAAAWsAAAAeCAIAAABlvKjpAAAT+klEQVR4Ae1cCVATVx/fYRwzTvPJAIOjMurYMvWYtuLUg3a820612np+tmqnireIRattjQqIKEs45AwBZDkSBMGAgNGCgAiEM4AkXAEhIkS5RFTAEoG8b/bKboIJqHVKv24mwx5v3/+9/2/f+73/8QIEmA+DAIMAg8CbIgC9aUWmHoMAgwCDAGAYhBkEDAIMAm+OAMMgb44dU5NBgEGAYRBmDDAIMAi8OQIMg+hgN/BU1fpc5w5zwSDAIAAGu1SP+jSvAoJhEAKVwY7iMMevP5j4vlPxq3Bi7jEI/JsR6E3czrK02eqSpOjVg0GHQVozwyC7sOhnes+8i8sWl+McdngtAKDxRhC0+xTxtTv3O3rv9T7q9mp3Hm/2YacJ+8/bcEVh9T1asswRnKOEU624HK/WaeLl/YSds99jWa1w5InraDbIQHdmeepGkb9VFHfK5ZANOYWS3iGiYl/ZlgiP/+BfhDst7tL2Qlm1WkfqGL3oeyC8KxF3azEiu6nVCIEnRvnaJMVxFI+6ycLXPcqKg9hR4szXrTb8+VZkLaT9sCysF361zydT9Y8Aergy/9w7Q+3SKx47bMxYFktc8p7Q9fj7GeRZU2V0dhH6jQszfQMG6ak5eJQDOQTZJ+YEi8Xf/+4E7fX3ahrAlUQZ5FCYMy4f++sX7AXZebg20kB4Weu9jM2y/imhSWdgDj0W3vRlI/6rb2f4yIqDpOINsVzTeHFmP1a1r2wLAi+6XSisLRPWlATkx34SCVvdKL1PkztGT7vyliDwPiVJhdpeYhrZZhcLa8sElfkuaXxLxGtDzXCm0VYwdvLXMsi8/bxo9IPw3O1XTIagaT8lthtrnSl7Nwj0lHO/nMSavjO5g5L/9zMI1Zfa1MmvzyDNt/iQ3UWYpAzQU7n7CMcstAonA5RBfk4totp4Hsk9Df16s4K2AveID0xiWe2/rsOsAHQp4icjPMemnkFt7ReKI5fhz8qxwYvNtw21WptO0ywXmCOBLmN/ZBtlkC2KPlLdZzFiLjshW0Zev9bxr2WQtdHUkFWXuc6HoIUX616rP8zDfw0CmsbglWzWAg+5dgK9gkEilTVnPL2nHHSd5SyAZd0vaU33PpS7BfE+cnQxPeyx0EMUonimnV64B2Sk7vPmEkcPn2mHzlq7xoUrG1xPEF4MJd4wgww8uecbwp972Il9yH2Rd7JASQV1sqNdoeM37lJSBq7xTkEu2UrsjvLubVhc26wtbc9dbsexTaVP84H0I5NY03/J02qCP/ynKM3D9I/yTqKqpl/d1zMEJBIftrgUra7PIAA8zrFF4G31uIkCwNBzyd3ktfEXJ0V5z06MO1n7UMcjULfG5AoWx3hPi4u0r3mUT7f5nxWtQeAf6v7UdrpWGsJGrom110YlD/Uo/bOiPo3xMkW40+MubS+qqiPssVbPBJit9by0J0jYRbxnmEY0BgH3ysLYEdfE2rEy2J1ZmrT6is+kSC9r0eXjNSpdjdpic4W2mEaHqh7ml/BIL0YjKw5mR8ZdfqFVAIBuyQrEY30NzWGkFeqcYl4MnUEAyD1hAY07nE48NvAo13f/l3Mns9nmMxdtPCEop1lNHdFrIWhteFm6y8Z5U80sP1i4+UyykgJ2SJXts2fVR9NMx0ETLK1t/+uUpKB3Ut2cwd29cvYk9gTTafO/c4wso/TFexVZkX5m/bwpZpNmfbYNzlDRZ4qODroXeN0oeZbblgVW5pbWtltcb+pYv2Nboy7BpgksW+96UqnhDBK42itgx5U7wWLx5hNnoD0BvirS3n1etceRY8oROIklYWnp9q5u0D4e7yFRijGI4bovFPaOnPGOoceSc/nXk9edC1vz66gZpP/+6d9PsY5dOp6SG3IzbZ+LK7Q/OJhs91a4E3Q6k74gDb9DKguqk32h3cGhJC1g91X8L1msLTHU6MCfbvNKgG2kj9CLwY6YW0EWCGwel3ghJ4ydKFG8ikFeKJOnIZ5HW/AJp5YW8k0jAzdJ8kIqC+DbyAzEc42sk2Sp/oxsP3Zk4EZJXohcwhELNolpUYMRGMS45CdIKpctjHAsKxHUSvmFV2wi4Ln597F50VtaVxJeWRJecmUWAq/IKUbP0a+8nOaX0Rhk4HbORZoNMiArCZmI+K7OyeHL889lhExBvLcqtBSgzrrjz44IWE9oFLVRHEwyCABdecsQj2+rtQ+DhvJL+pyifUd6J8MZpD16PQTNcCrBHuwrPj1vHMv62+NewSGBbvuWTIImrgquI3HGGGTp1xtX7HIN5Aed2/OZOWSyyENOFCvDvngPmrzMnhsaGY0Endk8Zzz0wW95JIeo77rONzGZutLBg8f3d94x3xQy3xiLjQcAANarpas3fL7DOSDY//TmOROg8Ut8FQRX66mgd0nU3bj0p7MB/EC33bYWkMlCz2qy7pjXSOZuw5pw4A+SFYYziMv3EuJVa9pzl+/mzEtU4RAMNpeeislIe0wC0nf3h72cRSmt+DXGILS6bTp1XxTHmNhxz9QTMA2qsmx3j5ZBnuYLxtsF+D0iu/ynwsGRMz2GiGRQfDHY/1yNTl/qDtlT4qh5cOY4h+VdokMgQOG5iMXaf1270hIPq9xi4TWVTwEAPY2JUxD/rWVycV3m5hguW5SHBnuxFfubilZVz1NVT1dVc8m+eA923B8SXEO1fFcEvLLiMTmU1dk5/uzL6QW48IGqvQhsU0zGAzXt/oke1HwzziDGJavlOxH4S5mWDodq792BZQ0P6UgY9WLWydpRjZ625VUnL4oM2NtITvuX1fsjYZuiFtLE6k1M96L4ZaB6HwJ/UthMBJL0NALdYSke7JTCJqIbHf4i2OKWXNtLeu/0z7H59oWfTIV+HtRJU9y/sYJMPnEpw1b8p1e3j4c+97tH4tyb5TADmv67hGwItUHMtyV0Ededwk0ToI/c5NhlT8I2CFoWTHYKDNSI3N0CM4nR3pdsx4LmOJWQ+nZe3WoGfXy+ApeE9crs+yuEMatR8pabQPPcR+XxYXXNt18lHbOuq1snQh86S3HJY1+jJnTJ/UHUQ2A6nEF4fGqGNTv/whkfppO3GFT3tnV1qx53qx7XHDvKMY1AF2SUldE8jsG6DeJAyE6QSEUqlb8dGS2DlF/1hOzjr6Et4t/WAA8O5F2CD0CSLzr8XE5B+4UpLwwyiLrqmpWd084icpEhEKjlLmCxDlA+AnGbYpBKKZ+dmIepqZEWBFAMonUEIjz+g8CT4hPCOkkF22/PR3wcGp9i/IL+VciEbCTuMj4eu/NXIbBdI7nqAFCc7zdaBjEueajeMQq2zqxoxLiUUEXvYIRB6BpFBGyuaKHScmgtrkMTRbQqWRQbESXhSnTnf4HAOxsoO15HIwA6ai6bIZf88FeGivLc00jOTb3u6V1i802bjIEgyGTqyuOJ9YQrUn5uLmR54BpGL9if2oBvIGijgCAnzAZZyaPC2zL3edD4/WnYYjSQfpgNWe2Kaegh1yZ60zWeC6EJB9KpohbeSshkhwgfPVivVvAp97jc+UNo/MGbdAmGzrG6q0IJpgIA3PNeDJnsTMLHztjX6AH/KxZrawI5NIYzCD2b2wqf5EB8nLIBeNkRH8mbtpdDz4/iGVmSQQzWrUn2hexirpNLBQBUNpcC2kAcpCgWprdInHsU4BxOMgjofawqVfWoDdoganHIWehwQgY5ycl2R2SQknw/tljahj1fXxZGMQgCLy+ozm5pSCtBY6jObdRoA60Zc3RmI5b3RYRReJhy2BzWiTsat0GMSwaDlRVR01FG83w//tK69NRzlcoWCnVMh2GtE0hgVtXKwprslobspprY0sTFUV5rKtqIid6aMQfxPk4Ne9BZLWSPUiMAQL98VxS8UNqqAUBRGsoWJN+g2IZ8E688YvPN9uS1rKysrNs5RXJl5wsazkWn36ezC3G+FiHWdzwOghBmMgCguzpdJCogPU253ypLlJPYU+bafr31kHPYHdKIAgCVbO6YQ/WpA00rk5KxXtGjMzWwDQTtvU49bvhsWN2mgGUQ9P0VPCg/9jV6YwbRVCX7jbNzWxNXJJYpsuSKLLlk58+UHYFHUml7SXTY520Z5LCAh7ZI+zZ241SgZRDtKxt+By3qvfv9Ps5MAW2ZJCrUeS1msfam6E0zQNkgRhiEyMWoFQ4CeMadOm1iBmUQxGenrAGdjdRXpcJbGTaHX49BjEhGdRp88uS+WCENkKYfvRXxYQT8Ye490hXBVB7WOgGEfiRV87BKaI5E8fHKb8kgQJ2W5c2+klmqafO+Ck/PuUfFM4nmDRyGzTed59D5NmkbD6UX2qeshVgmhjGITmUAgLpLkXf9cpiv2+8O25ZOHwdN/zmDwOrvZJCxrZEyaCWLtT2RHOyjt0G6Al050Pk82ir04PTR0TLIPXHAW3kxB0S3KftZZxi8Ohdz9o7WvcWfbr19aZwd1005XEpb+FoWax1CT8+gVSgGqZLy2ckFeG5HVswj/HlsvpHZ3KHSwiB2ZKxQmwlFfQ0vMqqq01/0ArP5DXoxfWWbEXh9DfmGACgvDGQLbmTjYoxL1m9KUyUNYUem/EFXe7QMAkBH9gKE+/MDTChay5gXs8qoF4NO1pYb1kjAmcpsW8TvBEGl+t19xbVxBkFtftMjhsYGGJFB6A0OVZ63gSYcuIGz/Ci8mLexQYx6MWNboxLn2SyzI9rNgqNnkJ4ILgc6nakgB6NalfW53WgZ5EWRfiR1Ma0u8R6VabPsnI7IaEYqVtCNRlK5pxSk+/GymR8icMjB3Qrwyv0gluE15NO47K4AV7Tz2hQUfeQUnLJmme2+Ts1YrFB1Po6IpPYqk6dHhJ5Qtta3V9jHwe9LlKgBrsMgAHQXfIXAn5e1E+j0y3dGwPMKH5Axl4EKebJdzl0iZoTFHW2KyfSfpsM/EabiIKDptBCelllN+PJ4aWpxC95n45Kf390nCjtxnwoxNJaHsyOSUukW1lO0qz/e0wWI1IiWi9GoKgXmSKg3vk/mZc2BSNimsJkUrRdJRWPDtEiqnkZY1zUtrnHwTOFFdmx6ATmI6O/h1efGGaQ7Ydt4aPapQhJndTl//w4HIYGzcQZpFu5auOjoDco+a/D5DBpvl4wD05eymwXNOVNM6otFUj+5QMRKh/Xqdb0Ysx0iMtyIRVJnny3F9R/zGt0PWM5irQ7VBudHzyDgwe1LE+2cPva97n9L4n81frlz6NfkzvQR4yDgheKQI2f80dBfUvL411O/O8dfcYxiH2Ls9NcdceSYOsX7ZmJbVLOLcvAJ2a88+dsp6HDQocTc0LRbDufOQ3svXmgk/WhsT6qJQ5B9Ug6f2JMa4POAilICADTNGTZ2p766pbdnjGh2oMR5Dov9Fa9Bh7ra/UTwfCnmQWueJGUGW2DhUsurKal4EFqPQUCvKM2THXszl5ir6uICvily8cs7d/iVRZ45UdYI9zOpihyOWO4TzeZKQuWS0zd0c59Ao5RFWyJey7Ky+XLJKXGgGeJv30TOEWBU8tBDjwQP9mXBr+VoNjdEmrQ0Gp6aJqMCAQCAoaYzsbCF6JqPHM/mKmpxsDCN8D2pwupiH0nMx5Gw1R9lZLRwUCYNM0X81qDZ3AK3jNApiPe2ejIgD9SZZDYX0yhybUogjRNxpDXV6MYW+ONi7f4A4g0YOwybq7oP9xWe/HgcNHnZIXdeaDDssHIaxPr0QimJs1EbZKD8/CfjoBlfH/NGs7nBbnaLzCCz/2oTtmrZ+YXjTKxWodncAJcfPzWFLLbEE8sWns19GxtkxepNS7AUs9seWwto3GKfWpLkx7ZGvXm/zWaxv42gXJHXYBCgeZ5/M/6LX8+bHjj3kfvVqPtKN9qeDuNxEAAAsaPsoMtMZyGvvk77uxj6iOiqz91z1sOCDNbulRKTeqCrzpvPn33YiW0PL+CK+LVP6bO9v736Ai9olr3TewcvfMoVXarv1V3iNMVxXGhPeAwZPaa3iJ13Ju+ZyTK1PZnxkKQlANSpGdyJN8pI5+ZlxxNVSXtnp5aZ9BkE/NkstkY8f7xHejJDz3LKr31zxccyymeOKOao/D4aRdR+1G2X8R1lsRH75CoJtf8Ke0LTd7dKvFEUOD3a79Pkq+7KLi1/oMVGJfd317pnRMwXepoi3GmxId/lFBVR2++I5rtbC/YnBUyNwDaYIbFCPCah/V0MFoj9ID58W6Gskp7TGeq+XYbuKLOM9LQWXT5Ro7dHri02T7g4xssqNnyPrCWHvkeO1Lqn/qo5woc76UCQZYaOIzAIAAMPs733fjF70ntsy/cXrDvCl2jT/sC4DQJAf8P1c9uXzp06cRzEsphps8YhuKCD1reXLZnc3StnWb7Hmmg1/7ujUXcJq5DcD/I2DPKdQJZ2ZoPNVDN0J5tbGhXBBWNYo16F8McPWRNtL1SQFA0A8z/K8JHbWxG0yXoCa6rtT+czCfvsufLaDCTgYOPTYea+ocH+5vd1IqlvLmaM1+wTpXHZotyaMd7Nd909jBPXCUgn5l0399fIf1kbd2z9R2Ys8wUOqS3aZRSVrWOD/DWN/UOlDHaWxbnuXLHkPL7ZEbWaxFlBZojPsow0rkyK/oKu+fE7YpN/BYOgNg68vEK7I/EfOk7eutsjWlVv3cI7ENCbdHDe2iO+Nxr0woUMgxgHW9Mrrb61KznYOpqL/qIkXWbQETIuZ6TSfwODPKoUTNTmhkcC5P+5/B/JIIZfCGODGMaGKWEQYBAYCQGGQUZCiClnEGAQMIwAwyCGsWFKGAQYBEZCgGGQkRBiyhkEGAQMI8AwiGFsmBIGAQaBkRBgGGQkhJhyBgEGAcMIMAxiGBumhEGAQWAkBP4HopL9rDiT1HgAAAAASUVORK5CYII=;" vertex="1" parent="1">
          <mxGeometry x="380" y="460" width="363" height="30" as="geometry" />
        </mxCell>
        <mxCell id="7tszo_fawbrAFX8Rzfel-14" value="" style="shape=image;verticalLabelPosition=bottom;labelBackgroundColor=default;verticalAlign=top;aspect=fixed;imageAspect=0;image=data:image/png,iVBORw0KGgoAAAANSUhEUgAAAOsAAAAdCAIAAADEowyGAAALuUlEQVR4Ae2aC1ATVxeA72QYdhgyMIGBsTDasWUqOrbgKEg7PkDtaIu1Ra1W6WgDCPJI0WrFBBIM4S0UBJIIBS3RvygEhYIWFFQetfgAhSoExIgYRVCKyqMEkPtP9pFdCKTSx9/Qf3cy7O69e+6ee+53zz33LADSB22B6WwBMJ2Vp3WnLQBpgmkIprcFaIKn9/jR2tME0wxMbwvQBI8fv+Fnqo4X4wvp+3/SAiPdqkf9o5NoQBNMGmak60pG8Oo3zd7gXyEL6at/3gJ9+VsRK8dN4acUfbrKjCe4oywDsDOyn+s++ZeXPAjfw2VmNkEI755JA148/MeOCNGUTe1Qd96OFovtA/kmvpGOcfKMll7dKTuiKnfx4rkUPBqZqO2he7nb7U0RW9dgcXEz4YM7styB9kAs7Zze35FYplJPJE+X/X0WeNl57USspyMLsVwSXvXruPcYBMHP237Jvlij+eVkmP8Bgnsbd+7igqC0gPwKSXHx5hA+8Dl0sG14bFf7cg8dAMHyC7+NLcbuhpoSljERu225bWPwRAl28BVna44scXSA6wwAZm7L75yoDbrs77VAb13cKmtk1vaCrjHvMQiCSY2afpgxdYLbz0kB+5sYLbK9v3hxuKz0W1QYB1uK57IFHpd6yHdRrnqL/awRW9+i8fMbJdg9mzSZula4AACnb5opwvTl/8oCo3clbkxkUWwDdYGdmOCjysaw+ITXdgrnCGQx9T1DFBX7HjaI0sTzg8PNA2OdYuWHFc+1izIWgeiRfdF+NTg2cab/ATthTqayVbgXjyLI5icnePjXO0mHpfMC+Uz/aOeEApmSDO0vZgvBnjM3yFaGT4t5IPyikiz59XB0GCP03C2trmQVhHC4lGONzPqqSqdWh2AIK/daAqPAUlx++FFlku+qeTOYTIvZzh57ZXU9pHG7st0BcM+sLQ33cLBhWb3ptCGsQEmuAC9VFxO9V8yfaW4ETKzsXD7ln1IMULRSt5+P83Kzt2aamM9csC74aC059zCtjt4sDfvY4TWW9Zx3t8ScV1HHiNLM+EtM9ruGctHGRbYWVnYuG4Vnx6w7ht2jbtl6E8QloYXSrQkJTl1zMMXzxCVJcfGGvWHAOyVJ9RIXeXHLO5hrzpXxi6szSkoDhCKwQyx+iNeiBE8uO6AICOYaB6fvLqiUFhWsjcj44OtXJnjwXmgID9n97Z7CysNnS3aEC4GvREK891wmH4SWUd3iuJLnN3Jt2ZGc+t9GR0nAKEZQSVchyMbjJCNEnS7BndkfA/A6/yr6RP+VUAcjxO6jPQclh1NFO5ZYA7MVkmZiHqAEL13t4fqFMFWaFuH9rgVgOMc24NXKjJWmYMaygLj0o9lZaWEb5hqDN/dVEQyrbwgXMBg2bkGxYukhgecCc2Dh8f0jXC1Uq6VrPnnPU5AiORS6Ya4JMF6SpBgXNRF9GHvGZT2WbjuQIk0VeblYAoZT/G1C1uB7VB/tiJj4/UjwCKHONzmUwvDN1fheZrSzcrkX1yFfhdlhpP067/j5kqeEVfpvfObDdS7swO7Hyz4eIztw5TiDHRfWghsL3Ve9KsHPfpIZs1OSHxGK/6YICubOOn4Xey/J68jgC7WGUbIEQjjaeZDPA4HJqwQiUy++DTeL91NHP9ED9KyId0YQ3yJdutHxXplcr9Ic95uvFUZ/aAsY74TXoh7vWd5WY/Be8h0C2b7yoNfBrJBqvG2UYIstud34/ZNj603AfFEDetubuwWAZZI2vA4ON8qjRalluJ37C9gImMu/OkiI5m1igbcjb2K3qFaszSfwaHxUKV7OAA7R9URb+s6orMXWPCIw6s7bZAbeElzDZAy/R20aZ/OZvFfbx9EJfbBY+kT7RLvgK65xxm3tPYRwRN33uLtH9bRH9bRx9y6u+REFVosSPKlsa3EqYMvyyeBUuY/zqgTX5cWDgJOnNW/Efh0psVyQcBXzmgSvXcnhPOB7rHBgDMED9XJbNtdaeDqz9k51w81E8UFTdsRn1VSH2xS3CEH8iql9xHtEzUVokhIMG7c9+S14KFAXMQ9Y+Z1G8Ub/NKV8CICHDG8aJdhNfE/bbH20AzD2LUGn4XBpIBPYfnG8tZeYldrHIISN8U7AxK+UrHogdgMMTznmolEKXaXtWok6wVvAeOdZ7b2eC1R2RTo+UyCEdxIWA8b2U9iwGH6P7kvfR5BNuWSurG9CgqnZtI6Y/VwgxRwHhENdJ4+KZ/pwyeSXFw/LiEEIUYInlW0sSALs40WEw4KQzKaRFp8kDq75Pob6Rvw69jLmSQiCYd9T1XVVr3qMD1YXSPiAk/OjNpM4+lQaFQa+/pHisvQT7LL/dHl5efmFipoG5ZMBkipYE/qGNtVGXrhn4f4Ni4Oz8AUKQthzu1Quv/wAc/XqhuQVVpo5wXxtnsvqTf6CjEvt2tmtadkiuIK0S5dmKhEtoxRS95eNMY4A+BSRj09+pSPblrIMgM0nMPMYfo90CB6ZEsGjtwqSjdiiD3JqiusV5Q2K8obq7V+SfvTvJThQJta8kfK724MNuZZg7cBRSh5FhXCNxPVaOPD0M/tIjpZp2HxwMYL4FJKTi2hIZ7yJCvSsGW/rLWIN3pSj9gH+Lh2CxwhDCNXdiqqi/2QkiUKCtiydZQRmfXkeD97+SYINu0fKNDcE2ZpPjt3EcfBkfrQ7VcgFkVXkEgTvh+56VYLvFKf8qSjCT35BN1BFoZg4F3HgEhpkdsaHckFyLaXLEF0NZPjCqWnhcaY7gqzN0s3y6idYs+aacybTCv4uwVSiX/4S6QhM/M5gs+gVoog/44P1RhGG3aOrAnuExSmjmG5KPrj3SBwXhJYpCJLUqvL32K9K8EDN+J3cYoosrpKyZA6bz6mnLNVoRY9mJxfHUxCedKhdelgWVPEYk5owH2yV2Yg+PVIhiwK+6ZmdRJuDbdwQLiOymjIP4WWeHcLyKqJijjatn+Ce3C3GwJ73szaBUCf19Qw6hu8K9BPcfuwLJ+ddZ4iPfxC2Jr4LjNkFWA/7C70QMDfsypid3DtReOCjo9VUowiWp5zY6KA7OfsD1zFLGnyP7qUsR5A16Q8xddG/UyIY3r/wrRmb/3ZS0aFz1YfyTi4XpK8mvgz/bhwMBxT+wVzjXelfFVZJi35YFyF13U3Sj6s02MwJ5przTyaVoZ/oLtZUdKLTZVC5fx8PBKb551eml5wLiogEPt9E3SVyoOg3OUZQWsCpCin+TS4l8T6e9Hj55PomDpfxpZSjqT3jyQsH3okCBQEH+uLhq4K5CPN9cSuBOa6ODit4OX7q/3n/20ZgxjL/aHG6JCbIbSZAFkZdJ1rW64OH6yLfMQKvr96doMmmSURsZxZgfapNmKnrI52MGLYrNNm0lPDPF5oDy40n8QkLdbSaKsGua9YvQVN8Im8XS2C0OLGJCKAMu0d9VfvsEeZHR6jOZ2pRBISjL346e3Ll15HmfhHzo/O+u6cUUXK6+uNgCCH+RWNn+GzBMXFLs/b/IqhcdLdUeh+ItSQ2iz7XcKiGu5sTpFL7QD4zIGZRnFza9IxK22Dn7Shx2pwAvunOqIVx8m9b+oh1QtP2YOftOKl0HkfA9I9aGC9Pb9b9r4knBd6zEXOX/ecfEtNCI6jDClVTzfXww4sJPivtrU2ZVm8sWsuRVmsTflC/D4ZwsLUoYuvSeTZmRgCxnO34QZDkchdF6aEHZXFebnOsTBEz2wXrdn13g0ye6Gg1VYLXyepLwj5xtGFpvqSISsgdpCH3qE9x7PO3EDOXqJuEi8AGY7wPHj9E/z/3fTfT1tuZIDYu2yLLqKvUv8sCKP1rZUQQMT06N9SUs/vj+SzEYlHQDw+Ijy+E6jTBhCU0ie4ntTnC7a5LIrFPbpSaf82ljv+eDj3rO7XTwZ2TdKZVZ6MywTe56dAhWsc/boFpSbDe7tI+WK956EqDtwBNsMEPEa2gXgvQBOs1D11p8BagCTb4IaIV1GsBmmC95qErDd4CNMEGP0S0gnot8F8masUvBdJgjQAAAABJRU5ErkJggg==;" vertex="1" parent="1">
          <mxGeometry x="508" y="260.5" width="235" height="29" as="geometry" />
        </mxCell>
        <mxCell id="7tszo_fawbrAFX8Rzfel-16" value="" style="endArrow=none;html=1;rounded=0;" edge="1" parent="1">
          <mxGeometry width="50" height="50" relative="1" as="geometry">
            <mxPoint x="40" y="50" as="sourcePoint" />
            <mxPoint x="680" y="50" as="targetPoint" />
          </mxGeometry>
        </mxCell>
        <mxCell id="7tszo_fawbrAFX8Rzfel-20" value="&lt;font style=&quot;font-size: 34px;&quot;&gt;接受普通参数&lt;/font&gt;" style="edgeLabel;html=1;align=center;verticalAlign=middle;resizable=0;points=[];" vertex="1" connectable="0" parent="7tszo_fawbrAFX8Rzfel-16">
          <mxGeometry x="-0.4312" y="-1" relative="1" as="geometry">
            <mxPoint x="-17" y="-11" as="offset" />
          </mxGeometry>
        </mxCell>
        <mxCell id="7tszo_fawbrAFX8Rzfel-17" value="" style="shape=image;verticalLabelPosition=bottom;labelBackgroundColor=default;verticalAlign=top;aspect=fixed;imageAspect=0;image=data:image/png,iVBORw0KGgoAAAANSUhEUgAAAxQAAAB4CAIAAADkPyN6AAAgAElEQVR4AeydB1BT2fv37zgZ8zrmJyMO+VtGmFXGNrrquCo6dt2xu7a17qxdV8XFXd21BZAiITTpATSUgNSACFFEAoiEGqkqVRERRaRLEBDhvnNrboBcAooCezIZOLec9j335nzyPM89gWDwAgoABYACQAGgAFAAKAAUUFsBSO0zwYlAAaAAUAAoABQACgAFgAIwgCdwEQAFgAJAAaAAUAAoABTohQIAnnohFjgVKAAUAAoABYACQAGgAIAncA0ABYACQAGgAFAAKAAU6IUCAJ56IRY4FSgAFAAKAAWAAkABoADU1NIB3kNbAafCQpr30O77YO8dzcA5FRYO9t6B9gMFgAJAgUGqAICnoc+OYAIepDdnU0sHGLvBO3ag5UABoMAQVgDAE4Cnoa/A4L2BATwN3rEDLQcKAAWGsAIAnoY+OoAJePDewDRjB6Gvwds10HKgAFAAKDB4FQDwBOBp6CsweO9PAE+Dd+xAy4ECQIEhrACAp6GPDjQTMAg6HuD3Ns3YAcvTAB870DygAFBgCCsA4GkgwlND3Zvqhk9f67LrdgK2f/zoWmYBCU8N8taaennR87JwcayNvaeJhbOJhbONvWe4OLboeVl17Yce3zX18gZ5a9/aLG9+dtWOPUIQ8Lq5vW8lDNVcToWFjvnpZtIchwJksKhvAE9DddBBv4ACQIGBrwCApwEHT/JyZxGPJbD/u7jx65AEdcZ1Kiy0TwnZe3Apm6W9PgSHp9qGpvfV9WF3JKYWLrb2XqYWLl7CMC9hGLkZdkfyvrq+R36qrv1Q29DUh4teXsKbwZmwK62mD3mHdhYEnrKd5zM1J244c+x+FnUoATwN7aEHvQMKAAUGsgLqwlPDO0na7W3B9hO8eeP8+FtjE6VVTfjUXp2209Pyf9hbwJvo77E3MeNJ/WAwIVQXC9MTxG8/KjGKvPlthjfL01JDGBkvR3tRnbrdkzfG08rg+TfplPxd4D2HccIbVmVypYb1+TKizrjX4xz0Jo9kjlu40tjdELU81Te2VFbVCXxCudbuyak51528A0X3ME4KFN277uSdnJrDtXYX+IRWVtWpw0/1jS1NLR3y5mqPm2yG6YUHze3UdNdeyJvbEiIWMK4eC6rH+1uSuIvB2XWj+ut0v2uN5B55c/YVK7ZGsKSppeNp7Ibhhv+HvRmcaecKel173dsYE79N0811WCaz5tw471L0Hrt+sOoqy+4YCjdNN/9hlOmsue5/2ea9aSAuJ6o+1DS2VIFjfvI/188tmK7B1Pxpg7+MHE0AT+Q4ggRQACgAFPjGCqgFT41vhGI7lsB+XUyUzWOpU3LE1ls8jcAISR3GFmk7BdwFMYnCnDRhdpJDgt+PXtwJkakl1JnjG/dKzerK45cIuEfzCQrEcmHwFHRzjdDxahky8dc9CRhzx2ez4FvBk5qNV/80crp1fHZv2/yRTJ2tR+KfkjtrG5rC7ki41u4Fxa8ysvNNLVxKXr7BIKnk5RtTC5eM7PyC4ldca/ewOxJ14AkzPsmbG4XebMY1TjyioSLdtdnyprS/LNljbt2tImDiu8DTu5dRN5JuIe+I3Zq9hyd5reSYJZthvvFElJuDxOxXWx2G8c/cEoQjEZSsDN1hzh5hufNM9A3nWN5Bx6kMw0UXC3ErHVUfapq6zpNj5u2ti8cwx287noL77wA8db2WwB6gAFAAKPBtFOgZnuTNVbkBYwXOBoXViiicmif6ftxFaeXIt/NqBJ625tTg39TlH0szvDUFjkaviLnw2/SkD7XQwJO/2PiBNdJB+QdxtNW6lNh9QwCerN13azDHLXFTWC+cCguLnpeZWrgkp+ZU134IuyPh3wigEhL/RgDGTMmpOaYWLmrGP6GWp5YAIZvBM5Mi8KRIdx2murzLEziTT+Qo/H3fBZ7IhskLjMb1Hp4KE7YxOCtNSVqqjTpwjT0mMBr7glGEHF1jWYbHhMnrJUfN2RqBDz6g9whVH2qaCk9OhYUOkqtTRzJ1zkVi8U8AnsghAwmgAFAAKPCNFVADnupFdy01xOmVWMvkHz/W1TU0NkvjbVkRqRVd4amppaM8Vk/A3fO0AcepxqrE9NCNgbZsb5tpolsXcl7WUo1Sda9843wW+tpM9BeczC6VSp1Y3ndisLoqpesF3N1PCG+OvPlZMp8lEIlJjWhKlje3VRbYP/Cc52utIeBp+3vslWYVYI4S+SteEJdFuhrJhMDd9i0y0yNuO5+IO8+CxoQnlX3IO+vj4VCSspUKTw1vIpOD1wbZT/CxnRUiNMgsriB7VJWyVcDdmv0qLtl/sa+Ntr/HnqQnL7E5sqmlg/6o/KVFANEwAZcdn6/kOcLzlj5I9FsgtNYJ8Pg9Oe91I4VQG8pD4n0X+9lMuOVxJONFgtSJ5RMZR07AjgV5p38bwxx/+Gy+UuhxuDjW2s4zKDQqKDSKZ3fD0dUPS2N/HV39eHY3sLS1HRI/TkUrVWlsgEL9xzKseWloC6lpcvhQxmoWB09jmJ+LovgoMXhyL5FcvLl0vOnUaY5HTHPLqY7gqvK7xsJNs7iTNc3nz/c451xQQSrcY97K0kB99+XaprpTXPT5JcmG1rjbjmwVDTw1VEqtArbONNfRMJ2zQMC5+UJxJd8PncKwskghhkPe3BzkN47h5JqH7nmR+CuDs8+njviC0ZxrZMPWDJaQw0fVh5omDYRI8FNB+oG1I5hzLhiiweMAnsghAwmgAFAAKPCNFVADnsqsArlzkkqRz/0P5b5RTmMEXE3/EPNYd5boYX5XeJI3ywtCJyKogcYSyT+kJfI1vBy3x8fzMx9ZxNzQEVitf/wGN2LJGx5IrrO8HLfFx/MzEi5GeG+/ozY89VByxc1wHkt488/UJJ+cFNdE/zme3BkJhXJkwq6VPUm6kZF0I8l/qoC7IlaKpJF3xuM6Ap68bt+vke32uuWbL54SHPcEwTjCbSevvffAnuXD/1368EaGlCcRTBbw1pE9QhFn9Z1bq+8/cM54ZPHAY6LAcknqa9zkQH9UXvv4WRri/cx5sFPYPTytvuO3Mira+XGCkdh5jIC3Kr2cMGZ8eBTvyBLYrY2NRZUUrA9z7ARPj3YvZjLX2/A6PbfF9/PyCcPwyNyS73YjkApPbjcCzS352B4vnzAnvl917Yd7koTb92LeK4dAva+qC4+S3JMkVNd+wC5icbAO47ptJkoP1DT1Epd/kBwxY2uHJlLZCAWg9WsF6/ZE8h0kptusJzKM1luRZpua6INctub1I5ckni7xNidcZjCMN9uX41dUD3nr405w2SMsf/3zwQ1HCWej6+51asOT/EP6BbtxI3l7DB4grrfDTlMZJlsciHqRDtrb5xDw1NTSQd0jr409aTVhmg8/sqToaZnMP2LrGNMNViXNpBRUfahpKjw5FRZe/Hs6c8TuUyj+Angi1QMJoABQACjwjRVQA55KTG9x12dUtsubG/JCxgnsf03NED+J3uHLY4XEPyPgaYPs1ev3la/fv80tTjoaaMnyFydiZp66jAOe3JUyBS3Fxdqz/O4mYf1syDoi4M6Rks6OcnuRpbqWJ/qS6zN+F3DXPH5HfNdvevZMYiHLL6fqS+O2E4jE8iqvcKt5QY4/Jr1sr0hYpYCnsuDEu9aFlUTJ9WFRPJYoPg8rGcWjCfczCENdneieFcs/WqbOUbJtckTzbi1P4+9lvMNOk7/lh1mygiQ52OaH3JOe3KnxBQgdIoBYbhfC7QRP97f+yGTuduv00LuFlVticiZmQzKz5GP+O9KklJyaY2bJxzYTkzMtrNyqaz/cEkVaOd+4FRpJ8tP7qrpboehOUSQJT2R3aBKVmadHc2b/U6C0xgEKQJN+TSN6+sZjuSF7dlQu3tNS0b+37SIU+ofvMmIveFCAHaXPW/345HDOgotFOLV8KHPSM1TX8lSRfnQEZ501QUvyhocnuWyd2ylYvSQqyZsaKz+0dYKnppaO+rd39R0n4THp3D28QrUeLewETyZXFzOZm46ikf4AnmiuK3AIKAAUAAr0qwK9gqecZFecEuQf0x45KOCJ9Hx5Wv5PwGUHBri//oCzRVnMXIHt6bxKFK2Qv3kyIUtwyw+LBUGghHswj3DZyJtTE66rC0/0JTc+M/Dm6kbLiuuVH6ajqkkHTyHhjc2lspssgcOVlx/b3yasIOEJK0HeWFOFd+pBvAPLJwJ5YotwzCGsiZ/WXJTmwRKEhGN+JRStVB4l26YantZSSs6UOrE8w6KwXKiLcx/pKsWUVHbb3ftlFpO5273TfNwHeHpTUX3TL4TkJ5KcbvqFvKmoVh+e5M0N/kIdJC5KeYxQANrkVEFqmHWZxx4R+IDUBzGCfqgpqSwvRt6SPy3ZmiLEQdnU0kGf94lkPYNzJIC4OOXN6X9fUxeeku/qMcwMgvBKy4srC2zd2QxBwFvStIZYnp5bO41jmJwIqW8ncQph2SrJSdsJGnYnryWLRTKvfzxmDzfbZluCky61X53SnQbL1GQJk7nhSAbieAXw1EkrsAkUAAoABb6ZAr2Cp7SE66yIlLdoqEpBqrsCngTc5Y+y457nRyUhoeKGpZTn115GTaeiFZYWCL2q0SmnE77Im7PUj3miL1kuz5F5aiMwZzUp0GPTvdsmGQWvyMgYTN9OtWM7sZgnQVBoQ3N7fVXR20okroUKT3J58dPItb48pagpMk4LxSNK+HzzS4TAAoIxOxz9UXLUVcMTtWSlCDCkhUoYiiipDjw59d5tV137gcpPmM2JJKdewFOtaLsxe9bdbDJiDFMABSDFUgXy5nxTOzbD/x4+QI3PfUWbtI3Y5MoCww3/D1tugIAnlXkzHqxicE6KiOuTulSBQnwVAeMJEXOpNeKLGngIsQcjSFR6X5kjLausa1bAk7y5FVmLwezgrSoCB+XPTB3HjXTzKqa4+cgGUBMAnqhqgDRQACgAFBggCnwteMIn9fonp324OpKnjWT3XkZNF9j+/jg/7jn1XVKGcUwnfOktPNGUjBCevPpNoTg32SH5rkHUzSme3ClxefVkw5DAdtVLFWDwRJ5MwpO8+XN5/FJP7uQ794UFeVinbt6nWMvo8Yj+KFldH+AJteEdeEasqylvfpzYOeYpettsJvNXvr1yzFOfA8ZJfrJyvkElJ/XhqTR53wjO0muvcKQgu08DT/Lmz7IHq5mcGesiboXmPox6+jDqqdd+C4X1iCZvU0vHF8ITw/yIPVIj5f3iNWZDJeGJ7AW5R95cauvMZniHVFJQSXZ/OcPwVChhcyVzdUp0gidjIz0mc/OxbGB5QqyM4A0UAAoABb6XAr2Cp9xkV1bYoxeo5Slb6sy6nVhCxDzh8CRvkiU6sbz8hJhhqamlA3GuWePB4107WZGwWtleouS2q07bIeD+kk0ugkABgh5L7lSX/GNuMp/lFXaPauToEzyVygQsgZcbORHKm2WJDgpXI4pHKh1z9EfJNvcBnuoy9gu4S7DFI5ABqgsSW3ayPCXtW8FkrrSwUIanL1mqAOOnTuSkJjzJm9/x3ccxHByoQdaYAjQAJG9+ZefCZvBvkjYbefPjC5bqwlPuF7rtTM7fV/YwkkPW/dN2zvwC5BGElzbObIZnYAUFnlLvLWYYnhT1Ep7O609mavx2BjxtB8gJKAAUAAp8VwXUgSczfzxgvLEgVNvT7Vz+q4Iy2Ul/7qT4QiTOt9M6TxWPfhZwF6eWf8bmlbqM3z25sxOLiUBmeWZG6MFYGfKYXlNLR0P2UTRgnHhkrNxexFWAiLzospA7MTobD62Vo0fDpa/UKblSdjTE/VwBsVyCvLk4zYPlKbpD9dy9Q5q6/xkRAYMVS3XbYXuaWjoolqf3WUKWwN3mDTGJfii/Tm0zikfjozLf46WhAeMBDx5jm/RHyer6AE/yd+jThT7X8ksK3r6SyIJX+9kqwZNTYeHfJ3WYGjtOoHYL0qTxhYtkvqmoxuKcyBhzNX+hRV7ptdqQvSwWYfFOb1p4eu92g81wuJ5N6F9X5riYoy48Vcv+UAoYf+20kJIXa4a8hDeNo3MqV7GqGbb/bfqREZwF/5IrW8qzHAOOnUzGA9W7XeeJHYwsJCtv/hR/Zx7DeJsz+WhkfYqBNXs4BQE7KUBuksOELlUQt3MBk7nMzBzAU5drhlQMJIACQAGgwDdQQA14Kr8ezJ2bjPpW5BWh0S5j0KhwraCwO5j1pRM8yWtD7lqxbokTMEyRf0h95KohsF0jkfAzpLxYT10Bb1FSyUesb/IGicQeXargoVtGwuVIz213XCjw9PG5zEtLYL3sgcQ1I+FShONogf3JQnKxHNqSG19yAy1Zft7n05ClCvjJoqU+3PF3H7+hatpYdOUWd0yIyAZfqiD3WQOxVIEqt11TS0dl6nYfrlZggKEsyUMWox/msSXcWdFmFI/W3rm1KvqBS0YitlTBsjTiES36o9Ulocg6BfhSBZrhd9F0mrCwHEFPNK/KmCd588fytIOBaCSWgDvxdpx7vHLME/KrdiL98cyR041jqA/c9dPPs1B17jadF7eJwdnsTESFU8+hgaemlo4C6Z7RHO1Z3iY2CQKbuwbLHXf+TPzESo8xT/L62OPoUgUGD246SYw2u2xdwVOAF9YG+YeEU1y2pqOBVSK64HjSrQdvkW8C8g/p523GMcw3HI/ycI63Oek6i2G04upz4kpGVxgfbr7xxH13R3yF8XW8UnKF8bBfr7GHX9tyEll/3Hz39R8Yhkv+LWig9rrbNBWebPyPjWOO/JGbiO0EAePdKgZ2AgWAAkCBb6CAGvDUcCeKNyqSfG68sfJNSVrZm0ryl7k6w1NzU3GErsBq/zOCchrfP0wTbQiw1fK2nR4iNMgofEP1ndWV+WGLZN66eTSjRJpEARHU/ZSRGbEtxFHb5/q8sMBrBW+VHlCiKVne/LEi59r9m3OFVhoC3sRb/C2x0pRqwlyBKStvrn356JjIYbwnujSlwE9YqwY8yT9Wljw6He6q62M9KcjbILs0Jdm1EzztyCmNTvRbKLRGFudMfqoIVEcBSOXRV9E/dg2u97T8HxakTw9PWI8aal+8fp5a9q4Ocyb6RMaTi2SipovU4zsnMkfN+dkr8TrhvGtq6fj2Pwwsb37Oc2QPd/cuoXiyyMudHp7kHyvjYg1W28zUNJk+y+1vj5I0YxsFANHnRdi3NPCM+zJt08mTHE/YFz0if9uOrB0JhivyOOg8X4uIST+UiVtGGyofWfr/Mt1cW8Ns7k83zjvmvyVXuURkfPvgqu/GaWbao0x/nHfjX9eiKup1XvPmvonflpnmkzSQo/84FVRS81Jrp6ZJeLK+b73wB+bIOX9dyAU/z9LZVElVDKSBAkABoMA3UEANeGquzxfpCBxO5FXiX6P7r1mdAsb7r6L+KxlFnG05tZ2DoLEa6Y9+xVbJ60V3eSzRQ8SpRE7ACD9l3fl1rc4I5thJW8/qJyLTMFZpg7y1pl5e9LwsXBxrY+9pYuFsYuFsY48sKa7mT7LU1Msb5ErLNdF0R/7Kfi5n3JYkfCUnmjP/44eQIXt279Ch1RM0mKNm7T+RkEeOJrA8/cevDdB9oABQ4Dsq0DM8IeafKvEDp9EC22VRYktZMuJLKn7TLyA1VOBJ4VzrNLSdrEedjn7hprwq7Qnq9ctOvh7nNVnAWyND3YXkdIslHPNT/7X7U2/hT5tFCnj6wqp7mz313hKG0X6hCsTsbWlD+HwEnrJdlk5fseKyh1EWbnPCxhHA0xAed9A1oABQYIAroBY8IfxUk55170CYi64PGlVzL6OuPzoG4OlLVEXj65HVpwRWuoGex9MLyjHHUCd46rT5JTX2Le9V8KIoQK9hp8GibgJ4opcOHAUKAAWAAv2ngLrw1H8tACX3twLUGbdrur9rB+V/iQJdx4vcA+DpS4QFeYECQAGgwJcoAOBp6AefktNtt4kvuXpA3v5WoNshw3YCeOpv8UH5QAGgAFBAlQIAngA8DX0FVF39A38/gKeBP0aghUABoMB/UAEAT0MfHWgmYPJpu//gpT8ougzGblAME2gkUAAo8F9TAMATgKehr8DgvasBPA3esQMtBwoABYawAhAMXkABoABQACgAFAAKAAWAAmorAOBJbanAiUABoABQACgAFAAKAAVgGMATuAqAAkABoABQACgAFAAK9EIBAE+9EAucChQACgAFgAJAAaAAUADAE7gGgAJAAaAAUAAoABQACvRCAQBPvRALnAoUAAoABYACQAGgAFBgcMBTS/3HyqaOwTVaLbVvK+WfB1ebB3Vr2+rLKz4M6h6AxgMFgAJAAaDA4FBgMMBTSdGi+RHD1mTFtwwOTZFWFjguYkLDtA3imwdPmwdtSz+/T/MwWDt51CTDtEHbB9BwoABQACgAFBg8CvQ7PFWIpNBcqU9NN5K8ED6E5kXi77n3LmR0cw6y603prnXisfvzM9pUnNCn3a3lEqsjq6ePHcUaM3nJHuOwQnmnYt4n+9jZRRa2d9qt3uYr/12TNMYuscz4pN75X3xWhcQDOuTh0/DFBfVcwGvjc5dYN/NhGH5x1xk6fBl/HzK9gOzr3au18pmFi8u004YjjpvP4Yk8ihqpBsbG8mwTJ5dpp41G/mE+1zLY8Wld10vg08vgA9NGMiesMHARFxKWpwrBRuyn35C/zDG6838+Zispb+1d28DZQAGgAFAAKAAU6FaB7wlPDQVvfMJKkLe9VIMGnrpt+BfubEq9NIsxbPyqMzxXvt2/v0xhQuP3iCqUCs2zmg9BByO7TtdKZw2Uje8CTw2lT3ziU5F3gIdGH+CpMe+Ps5cgfedToQmuYvHuC4bQUQfrUkLx2oxfT18aftb9bPgjt3tRRwxNoMNWnAJlAvqUb7OMxdT9PbhUaT8KT7OPu/ggL4GLxakVYyFo4u+hlQNluEA7gAJAAaAAUGAQK/CN4ElYS6tRRs7YbwtPzeJjIyHdC9KPWLPaS/krh0GL7AqprQTwRFWDklZYnhQ78yPG9h6eyh7woUN2XJKWGp8cPnNptPtTjINeI0ftbcoJ09/HvBP6l1gez6hxZI3iE2zmhOORnS8vFJ42+rwnG9iaYTIXguYrjzB5FCSAAkABoABQACjQCwXUgifM9eZd8M7MIHbCknu6e1JMEuTkN/3SW4+gucmBjWSt9dztEdCVcmwbzZskLMLzTtmTYpaoyIvnUQVPec+mzo0g/HpigxSyCjzRXl/nw0tevCVq9NLoeUdk15PlaoZFVXpthqDtAfVkgVU5d2+Ls1DDRC53psLlQ0nNt8LZ6r3PRgjaeDMj2njb7PGjtSbP38EJLyFjm7LMpioysQxiySqQBDape2VHc36ZPW40e+qivdyYcqpnT14QdG7zTzpjNH9YfIAve2g8FdLsVIRSeYoNzPLkVZLHsbIZ94fJVCMhN6dOqeQ3uWbOLjMNjDVOW863FLkVNJAU0mPeD2XpBpa2E09e1TUJuFny3OQ87rZTVK8antpqi6+78WecNmSdtFhgEy4sUUT+x/uYQOfuZilKabvtchkyji9B97yVuEOHBP4Kb2q56T+XNG7mEzAFw3Bb9Bk2U/vvRLInRFFd4AmGH50fAzFOR+NntL19dP34mhljWSzNHxZsOy/MrFO4C+nHF24vj7c9smrmRA0GNEJLV+9Xw7ACnMHRslvLYniHV05js0ZoTJy7xcAro45oVM+jT57ZNYH1yDs31mznTxM0tXT1dprcU7K2Dboede0j2AMUAAoABQaLAurD08N1Zx7+7lTEFz47vOcuNC/OqhifbtSAp4QNBpS8P8XZvlBMVYhSquCptkaE+fWck7TmdoGn1lrzXyOhxbG/OxTybxUYHL3PmBdzLo2EOrohaE+5rA2N2SUsI1xElJOrZAHuyMtkhw4ELdLnoxvu7u4hj/FpEJ1cl67dtuKgiRPf2fTIIk1o2ALLXHwGr3osQp1FPiZbtaBu4Wnpuq2L9xs5ujpc2TF9BDR8yfUCohVNCQaTIWjcitOWLny7fzYtX7V8cq/gyWmdteP+wIeuYvGO8xzoiON10mzz4ekRg0sal4SGYqnH/ehTJmbQMReXNziHoPCkOu/HglMGl4YbuP8V/ogfGb7J1GP9P2rDU8vLKxcuM/+6ce7OI7d7948Zm0DHXV2Jeh/cNISuSKjmPqU9jQX6565MtX8YXVL5orxE5M/X/MP5+ktCK2TEyvlrmMydfgo8IYaxKzxV+vwCQTqG6egZTWlXZjOYupvPWbu6OZkdW8KGRq1yLSQQjH58SzxWj4TGLjvFc/fyEThzdkwfDk3+N5HAp9Ysk7nDho1fqW/pwncw2j9XA9Lc5v8WbxbaKtWjTzS+2/943m1Lf7/qyHcyO6w3Bho23+oZocYg7FG33QQ7gQJAAaDAoFBAfXi6uy+KMOvUle1aFDHFAQ8CVwOeOued5qQcQK4KnkgJc59O6gJPzQ8fs+ZGHY8naOlT3dXtEcP+eqUwgZHZu0mUh+z/AYI0f9xy2swjPK1MYd8gz1XptkMnV829wUQfqny3j4BmmuWSObGEzHhS9/A0encgHnvTUeKyfBg02yIHy9EqPjYc0vkrvgnb/JxvPR/qFTwZ75biIdMdlY+WH740OxS3/30ue3zZL+Z+NdHEpqw9Ry8tuIMHeaHwRMn7TinvxzS/YYd4nCJ8nv5cHqt3WF14qk8SDj/kaP+WsBY1F+gbXNL2e4G1Q4FKn1s+tCI8rdiDnvGpMteAY4wFpA8zuGHXOai/wGoBk3k8UpnEkZwoaqy2zylHXq8KZXcsNkyAhv1ojMXv14fsGw4tti8maEkeq68DaV+Q4urQjm9j8F4IWuZaip8Lt+WJLMycJLjOTeGHmNB0w3TiTqkK2TUammWejZ2Ntkrl6BMldv8fzau5L4TwRNaE7BoFTTGSYWcPxh5130+wFygAFAAKDAYF1IenR+7vyA59sNkdMewC/vSSGvCkMi9eYp/gqUSYoGT7izMAACAASURBVOwuhN8VVDzI+KAePMFwa/kj9wu7FumMhCCIMXbZP5HlxGSKtYoenla6vCTlyLGYDQ0/fp8gBHy/SnhawS8js2YaTYGG/3EP2y51XQVBu0IUIJfy74RewZMLv4osuczo70vDPZ6R2zAMf26Vv6upK6+uK6/O++vsJQ3PAuwoCk8q8z4XO0GHhKEEo8Jwyb9n1IWnzBAr6FTQbaRG7F3haHkJsknHbEUEKr23N74MHfe981EZnury9C9cYV304yXkRCZLL1leG3aK7/hS0Q4Yzuf9xGSeEFP7iPeI+rQd4kUdNn7ludAi3LeaaToD0jpxGyUr9E++4wYI2iakWhZVjW9b9GkWNOGg3/PGTsONVoxcMyNORCsOvXZZCQ3bL8IMUygAqRz9rr2g7kHzrnLHIQ2G4WKbhdCwA2GYHIOxR9TegTRQACgAFBhcCqgPT9TlBuSOv0VAf73CZnk14EllXlysPsFToVc8NDftNnUy7Yv2HU1vsyIsfpkIDV/tigXb4KXQw9NGgeLZvLpn0SJR8utOBhCV8EQNZM7jzoGgo5FYlYV2iyBo/23CbAHDWb2NeaIsVVDBvXgJ4hPmsE/vg7xcJh69pFhZ4PBlbLkBxE7TeZkDpbx54dehQ36RCrLsRcB4qj+XWiOetkzG7CcEPMHy6vLH5Y2tSpan9lR/HnTSO4T0yX1+y+VcZlpIFfzQAzzpXbwdGxsbG5eQmltS9VEBNHDqlUmKsDQytVGAW3VQy5PK8W3NtV+lheAYa9wMvbW7Thp5PCwjr0GkZE2DBMV1+B6hOKJkFIBUjr4iU3epLnlLHZdB0O5A7B4cjD3qrpdgH1AAKAAUGBwKAHjCxqletH8UtMC6iDJq6sMTJRMl2Xt4KrZfAkH7wsjYc/gxp3cxT9R1nqgA1PE03J5xyGx9QKo4pyA2tyA2V3rgT4X1qH/h6bTQBamR8n5Rh9EGCU+kapQ9NY5XL0F2Mqod8UmYLXT4lpiI84HhQuuFTObROwquIwrqghrEAfQ/ghrsvS4IWVFeGa9xBuoCT0qZYRhurSlIjLzlcd3sgv7epdoMSPvPGNxb+j3habD1qLOqYBsoABQACgweBdSHJ5Wut8rQJGiu1JuIAILhGs76CE0L3MmHPm2nMi8uVJ8sT5jbLoBYFxGJH84pv51Ur8Y6kY3xVgcPmtwj4keQVsiMp0Lsv4mwF2TPt4enhsDdEDTfFnemwXBdwHZGr9x2quCpxsnkEmSeSLHZvLpyVl14KhY7fpHb7oQorpNNjrg9un/a7upDNKCo2uEq4uBTPBAJw9kia+gw1Qb27uZGJnOToOvqTfTwhDi5NM6oahXcIzwR7Uf+tz8xnwONOHEXAzg13HZfYnmiddsNth5RVQRpoABQACgwuBRQH57E++8T/iQ0YFwR9J2RM27u3YMx+Pf2zyUFenMj1gTgkTsoPIk7BZtPdVSgFqIXsiSB+IxUxRwLw7DqgPFjcYTP5FOt0dYIxt+4M5F2GNofnZ8AjdosLCdqbH1ybQEErXBWBCPBcInTcgjaLVJEIBFFqjm59t7yBJd6rGZC49aZRmYUFuVKnH9fqjP2q8BToyfvEnRFUkB2tzx28SF14eljaueA8YWUvLgoJfenHjI8k0PxjaEH6pCAcd5lcmXLT2V8N6F+Ag7W3a7zpHUzDx3R9uRbXOgY3+0dUebHF+fOXxpmTnXbwcmXdZmjD0d2GSN6eKoL3jscmnY5hXxELpN/fL++LwGttONb5ntw/oKzdxXI/tx2ETT8UDh2FTbdOcyEpnPSiDsFDRj/8Rr+QECXVik5bYnLq/v/aN7R+0VEUBsaMD7t6mPs7MHYo+77CfYCBYACQIHBoID68JSw7s+HB52L+L7Pjuy5C1GXG2hvdD4shpbEHeEX8b1yNq2PhNbIogj7DwpP8ctPxFPz2jwnpnFMo+bKM2siNPY8vi5CFxwPK0lAjSSVuWX4EuTIUgWRa23wo/dfoJ6b1lqzXyOhJchSBW7+BQbHohnzYv5JJ1iKVv32IvefR0PMSesNLF34TtdOLBsHQTonxMTMhOb9lHTxB2jE/CM8fLECcR7uT6OdXCtl+EoF6FIFzLUXsXULfO7nI8/Q9TR9tjzz3j+diYXhjFnF4/895avAE/wq7saoQ4azrkc6PJA6hAQtN3JfS/zESo8xT/DHgpMGyErff99J5EdGbDHlr/hLAV64zC2FZwwuaRgGXZegC47HpyZUokPcUnLx38vQaeeToY/c7z/QNzWHjtpde0GsP4WuMD5M3/lUWAIfX2Hc0fYV7pbrqMncfebSsDOu+uj643svGUGHrS/nK5yayEJP6UbTmayfXZ4ThIU3p4vOyldDU8rFWQxo7LKTFi7urlz9lRMh5rxrjwnioR3ftkzzHxmQztq/bJClClzNDi0YDY3+lVyNoDXHfD5j2IRVyFIFjsa/zdOAxuwMIp606NKq3sLTinXbl6DrY5gd0RsDMRba5hMey4HdI+nFSUzmDHPKil7K4wG2gAJAAaDAIFNAfXhKEha85ehLxqOLZHZa6LK9rvbGNen89fdGr5IsP/9M/Jr4TIdhFJ6knk/eXDolGdddXkywmpziI789GDMfXxLzaCwy9cocHyh+/I78Fbx5kRvxp5fg9vpab17yos3IIplze7NIJgzD8udi7qGff9LV0mDrzl//h1NC158+q0tzOrToh9EMDGZ+8cHXsaadXBH3X3cvLABZnemzubokOzUlq7S+HZZdmQSNORunzjVFH7cEd3xIuhe0+h9zjROmMy1CvF+WmFHWauohLwzji2T+YfyDka9LUSH523bUhtUUPTpy1XIMEZN+VIbzTFtNoQ2fP+20IesU9yeeiJ9fTwWdlspn11ycp54yHPnHtXk80Y0iORWrm989sXB1naFvxDqJHOUXfKDmRWuvCj/yA1ND72LMG4LIkN1ddKa2FEm3vYm3Obp6GnskS2vST5vO8KXkagpwT267lueRpvuWzhg/igExx/wwZ72+a/J7SqM/vZbwDq+cqjWSOWrC3C1nvbPIiPeureotPG0R5tznbJ0zfjSyOKfZfUWg+sDu0VuP9Uym1mnCNt15LMA2UAAoABQYdAqoD0/SHn5iZdB1feA3uD741+GQniIGauC3+Hu0UJ7tvF13BHO83u/mkjffowHfpE4UBzcJlWyj36TiL6+kPfZPNpO5w7fzb+h8ecmgBKAAUAAo8J0U6AU8+SjHKX2nBg/1aitSA1BHn7eHjcHq8dCIZY4FCjPeUO98X/v3uSojwOTAiiXm2ALifS1mIOfr0ZY2cBv/wmkJk7nYjggpG7gNBS0DCgAFgALqKgDgSV2lvtF50gtjUa/fsFETZq08bPewXPFg/jdqAahmICoweOGpRXyCxZx4QdrF4zoQZQZtAgoABYACaimgFjypVRI4CSgAFAAKAAWAAkABoMB/QAEAT/+BQQZdBAoABYACQAGgAFDg6ykA4OnraQlKAgoABYACQAGgAFDgP6AAgKf/wCCDLgIFgAJAAaAAUAAo8PUUAPD09bQEJQEFgAJAAaAAUAAo8B9QQCU8VVVTf1XsP6AE6CJQACgAFAAKAAWAAkABNRQA8KSGSOAUoABQACgAFAAKAAWAAoQCAJ4IJcB/oABQACgAFAAKAAWAAmooAOBJDZHAKUABoABQACgAFAAKAAUIBQA8EUqA/0ABoABQACgAFAAKAAXUUADAkxoigVOAAkABoABQACgAFAAKEAoAeCKUAP+BAkCBflagrb684kM/1/EfLP5zTfnbpo7B2fGW2reV8kH22+eDsc2D8+roe6u/wRgBeOr78ICcQAGggJoKfH6f5mGwdvKoSYZpauYAp6mtgDx0H1Nrzi7jsAK52nkGxokFjouY0DBtg/jmgdEedVoxGNusTr+G0jnfZIwAPA2lSwb0RaFAW50kM2KbyGGCN2/cLbetCSlSeTt+tCljp6fl/7C3gDcx4Ma+lJxnrYqsAzfV9Mo3Syqu62JkkMu2KvXIY1OcNK6xbaB05NPL4APTRjInrDBwERcqLE+1Pp5shunFR0gzqWlkuyJlF4OzS9j4DbqQc9WarSGK/Qo1lVtN57CHG/4f9b0tveorlKykT2et4PZKWaDl/jmjmWOWGCfW9qa6Cve1EIPBGHc2DjP+VHptHj5iBIOl36McLxyXQYrX2AvS7qt9n+xjZxdZSNx6nU965b9rksbYJZYZnzof6ddtVa1qCNyt6BOZmnghldqa7tqsphrUYtRPVwg2QtBGn/fq5+jzmVnGUyGW/oM+51dkzDKbSgpIJH75Gn0YOGME4Ekx3CA1ZBRor/a9d50lcFgXF2Obk+YsE2/152kEiSUtaA+bMnYKuAviUnzzM3zz0h2T/H/04k64+/jlwO9+TeISAfdYSZepSC7bSvYoX8aXRaz15bL8ROFNA6FLn/JtlrGYur8Hl3YCVHmgkM2wMExBGklNI9uDEp7kWaJ0f2G6n4Erm2HxuwWS9n9Q+VWMKlR9qGnKADdm8tawmdoHwnsxyyLwNHvZMi1dwwykpIbA3SPWr18HqQFPDbliH+zF2aQBqYSnPKv5EHQwcsBwPKaXqlahE/Oso454z/B/QanvKDJ3m1RTjW7z9rhzUMJT1WMRIp+XwVIImrDjGipldMHHHjvb4wkDZ4wAPPU4WOCEQadATUHQWIGLQWmjIpbiY8GZW9xFmZVIX1B42ppPujg6ynKFmgInY/TggO4sLTxRegS3VsbqCbhLsr6K1ePLJGkUn2AzJxyP7GoRaQ27xWbwzB8j5VPTyPaghCdcqLbwADbD1ir3y3RTzk3Vh5pWOqvjhetKFvMny9wupkml0ygbCDzpnuMc0ZhnUwDDTeJDrJWWlrvUgSdFIdILY4cUPK0VVCg61+sUrRq9Lg3NMCjhCe9q2+2DEDTT7CveCyg8DYgxAvDUt+sZ5BrACjSL7ltqRGUS4NDR0trU2A5LpbYs8WMEkDrDEwxXJ+gJuHuLMMMUDLd/kGaFbwyyY3vbTAsNuJj/po7a29YKv0fChX42EwO8TuW9TUpzZnmLJdgJDanrBdw9hQpbQ77MjSW4LSaz05bc3ljiEOs9z89aQ8DTDrixL/VpIf6NvcIqmMsiHXNkQuBhh7UMtTxR4QmGSy4KuRoJRXjNn6rEMtHaYIcJPrazRL5nn7yqVMyvcl8xlyWWZZVKdoVcHy90WhIliainuFFU55XE81ixSYESvrbvzYtl9bk5t2YI7Zc/zC1RFA63RZ9hM7X/TlRwLCkGLA4ay7Dh5aA7qGkSnrzLJYaeSyeYTp3ufNSy4A2lUXBbfZJ98NZZ13Q0TOfoeRkKXys5M+WV98xvbfrRcrKm+fyFN8+7l1RS6//wNsjgxnIdU92p/DOC8hRTGyW3HV3Jjf6bOezNKdkPovbPtZg0lrdq511xCbVZSF+6hafYk0bsIw9DDtpOmehsKKl76uQ5byz351NZL8mGyStDzwtWTjKbPNn5JP+V9Ko1W+t2AikWVR9qmjwBTdQIt49g6tkQw658sJstBJ5GG4SL9o/42e11q+TPMYvspIKNJDyVuq6CoB2BDWTOPO4cCDoaSW4jiW5xIZc7k3DWKP2fb1WIZVZy67AMlN2EGC5458aa7fxpgqaWrt5Ok3tKdkt5YYTZ7ytmamtqsKfM36jvlvyOlBF+74N4uW5mRBtvmz1+tNbk+Ts44SXYLdlTq3qYmGnbjGvSrRrosba3j64fXzNjLIul+cOCbeeFmUpXLJ69u3+YGl7Z0ZxfZo8bzZ66aC83ppx60dGXTKcVDH946muwYe5EzTG6y4/ezJKaTFdy29GVTKOzohfdwtODP4ZDh+1vHZilNX7xeUl5juOWyVoT9U4Gl5CDKC8IOrf5J50xmj8sPsCXPTSeCmkSl8jAGSMAT4pxBqkhosA762DuHNlbpDef3/s9cB4j4GoGhF5L8GCFSgu6g6ePJeETBVZnX2Nzfqssha/h5bRdmuj2JJkbJ9ARWK3PqSLu65aYeHuWl9M2aaJbrvSSWLhdrD480ZdcK4jgsXw9DTLShfkyfkrgHE/ujKSXqKFb/rgw/eaT9JvpgVMF3BUJaUgaeedmYrzXFZ5QQJya+hodUnlUrAPLx+1AqvTmk1TeQ6/JAt46RY9QeLot3HUn9FpOGj/99gohd1RowhMcgOjyIvAU4PPP45SrYntW8M1DD6WuUh8dgc2pUsVHezl/DZO5008JP4nrLEakw7C3y0c3qWkCntZv8Fr32z03foLZTpuJDKP19u8I90+rjHN93EjenvOxN90fWR13mcow2cInAUn+4KglW9P+qNFDrxtS29P8GQzjza7k0Zb405bsEbxf/469yY833MLfvZEKT/Qlo/C03GP/qgCes9TDLHCtFmesnuQZcXFgHVMJT1PdL/MSzTdbsGc7Hz8d537ebSrD9M/7mDOzVXqWx2Zc26QvuYG2astKnhI8UfWhpgkt8f85FnOYI05EdXHsdjqN2ETgiXkyqtpvB3O7MOJf7Xm8pwgwEW67vsNTlSzAHXmZ7NCBoEX6fHTD3d095DF+JeBuHR8fk61aULfwtHTdtqW/X3XkO5kd1hsDDZtv9YwY/eq7R7Qhjbl7Da+7e7hanFo+Hhq50qWQGAR0Ul+6dtuKgyZOfGfTI4s0oWELLHORwz21qoeJmbbNuKSq4Kkp7cpsBlN38zlrVzcns2NL2NCoVa5km4nx6PY/Ck9L121dvN/I0dXhyo7pI6DhS64XEGrQl0yvVaPklDY0/IcNf1m58u3+2bRy0/oZFHiiL5lGZ0U3VMKT7pq/LJ05GydAsxbtP2XjdG41G9I8FoW59ZoSDCZD0LgVpy1dkFYtX7V8strw9A3HCMCTYpxBaogoUG7mz13/BPlh68YXoeMEDrsycsWFkh1+PJYoEZmpUbDYkF1R3lhf3ljztCz9WJAlKyBKin0ateYe9OSuzK4mPotb4xMcWLeikzFx2p4eFXDnpJXj4TsdlQ6hlupanuhLbs09IOCuySEpoz2/+CE35/kb6qDQuu2IHtUVVebxxPYsAd8MA4aOdyEp0Tal5C99N99+wGOFJiIcibxQeBKGiAh7WXVBwBgBn4sZ7mjzIvAUnlwCw/A7ySyBrzcSYlXyr5C7LLsaLxuGC6wWMJnHIym2KPIQXQJ1203ak4G7Ujuqb6w0ZM+NeYrlqc86NoKzzuE9OUYJZyzZP0Ticb2f34quRF6PJpVsvrPXiK0Xi5s8PuacGs5ZYEgYMj6/c15sqLA80ZcMo/Ck5RtWg7e92s97YhcPnUp4WvEI0Up2bz7jpvA9DHcUX9HirHFAQ5Ran/45gjP77yI8KOTzO8eFHCV4ohOLcqwUYdU9InUD7RF4go5GdlQI1rJmzpw81TQTLrZf8hXgiWiSqugi4jgMy4wndQ9PmvtCiOitmpBdo6ApRjIs1+engZcv8O6XE2U0iPYwoQXWGITDmOVJc28wMUZVvttHdPIcqWoVCk/LbbLKqa/KD4qvAniV3bUZP6QCnupD9g2HFtsXE1esPFZfB9JWFWZP9Az7j8LT6N2BxL1Q4rJ8GDTbArPYwvQl02v18fbBYdBUThr+afa5wFZvmAKe6EtWR2cYVglPyxxfIPeC0RRoowC5Fx7+rQkttC9GetwqPjYc0vkrHo/Y/JxvPR/qBE8DYowAPClfp2BrCCiggKcnMj5BCR2yZEcFPJGeL0/L/wm47KBgjyoimrkybq7AVv9FPYpWyN+CHF+WIOAWZuOpS1ol4B56QXzrg+G0JHt14Ym+5PYiA2+uriT7Ratq0KCBJ+UejfL1vvC8isAhdEw7PtXJ8U7FSB1ZPmLCU4LC052UUnLkqx4uEPBOl1KaoSIvAk+R6cgkVvVwoSAwAJGwzNiPu5BgHhiG83k/MZknFI5Lshb6BApPm9wUgVI5xlbsESExWK7MaD2GmUF43Zty/F3odIPN8AokeQkxOrbWvcOPSv7msTXD4rG8zxPWMzhHw4jhhmHZBQsFPPVQMgpPqxNfkY3PiVnKMDKIpmhF47Zbn4SgcK5kGcMnGHGFvTTT4SyzRiNsSqVbGJxDIuVWUd12ZI30iVf8n5nMXWjp9CdiR1F4OhD2CX6FPDz3w8W0drjQbtHAgKdV7iQewcU2C6FhByiDBsOfP9a+wxkn+q9JkMafuOscm9RXuiie/8ixmA0NP36fYo2jhSclNyMEQdg0r6Rm7+Ep03QGpHXitgLK8h03QNA2IfWKVaqCsoHC0wp+Gbkr02gKNPyPe9i2OiWr0uq5w1II2huqCONO+XeCAp56KBm1PNHrTANPa9HRzeXOgXb4IfdC6pWJ0ByrPKRPqL1zVwgZkwojrVJ22w2IMQLwRF6RIDFUFFDAU3qSPUssw56VKcrwUMCTgLs8+Vn86+f305FQcaN3lA/WipjpVBDB0rhZBYa74EuO+jFP9CXDn59ke2sjMGc1KejGpugI0yclr4kvqvjQdKkd34+67bAexb8uSa+qrW6jTudtL4rurvXjKUVNkXFamOWJUAkpsKUypvhJaiNWAl3e/oYn6lIFBZbX2YygKKzDaXfnUpcDwNKYOQc54VNJ8O1NOkZKqwaQixHkxa5icE6JFSOutFRBDyXjMU+KRwvqKiSi7HTc4YuPhkrLEw08FcavZXCOhytsHEirvhE87Re1wLC8oriwvO4zPHDgifpwfinCdrsD8fm05XmQwYqJTKUZVPGAPRaLQ4n6rnsWLRIlU8eIFp5+NAiIpb5kpV0eWu09PKVemaTUXGwDNbrgV43qf1jME+Uxf6XIsx5KptWqiw5KSxX0ULIaOvcNnhB8h/bfJiJQYRhplTI8DYgxAvCk+poFRwapAmrBEx5e3VqgL+TqPCxUfM2piJkusD2Q8zz+NfVdXo5xTBd86R080ZSMiP25tvaluEDmKIs++8Bziid3yqNixbJIcDfoho9Q15gnytB1VCcu9eROFkt8S4qxTgkkFGtZV3hSO6868FRovZDJPHqnEwVSqug+2eVpu87wxDA/6lqYEEd9v8acqR1PY1czOTM23vUXF2AneB/kKmxLPcKT6pJhzG23OUUBT921vi/wVPxwPYNz7LYCnrIMlWOeuquom30lziuZzH2hisu5m3Mou1DLEwpP5M4BY3lSBU8dT60WMKDx6zk+4hgMcjwOTFTYS/CAcQo8kV0jE12gAT+Cuu2WuSqMsGQO5UTf4Im914UKZbGxsRmvFaZG5RqoWz3Dk8qSe9Cqiw5d4Ellybh7dCOtzn2DJ8RxDO0LU9jNH3M6xzwNiDEC8ES9SkF6SCiggKenMj4elAPDOWkuLMw5pfS0XfvjFGeWl78v+e0Sca5ZE8HjXfSoS1pN47Zrytgh4P6Sp5i6MlOcWMK7uMOIvuTOVXU8lbmxvO5EUU1IXdANz0QLT2U5XiyBjzslDCYjxVHhaqSFJ/q86sDTu5sbmcxNAnrc6Nz3bpYqUIInxLlm8k88VRpFEa+d+WyGm0Dh84EzOTwFPKGYQuu2U1lyP8JTQ8ZhBmeVHSlTk2iHYV8sT+lG05ijzxAeLIUoKlI9wFOl9xYI2uBNtgpWmsbwMlVE+WBHu0zPXRrSHYiguKDKbffKaTkEreZTxld2ZdJAhyfEBaZxJq77K7aLJso76OGJtuQetEIxhdZtR9PmLpYn5VZjWypjnmjcdijCzrclYjLhuoDtjE6Wp36BJ1olu+kcgKduRAG7BrcC5eYBeMC4vCRc29P9fElFUWX2qQDuJCn6WLkSPMFwXfLPAu7iDOLh/ZbcA57c2SmviECAtuzc8EMJWfit3PbsGBowjpsIOt47hHIpIFJ6xZc7UfIMj2TAjkakYc+8wfQlf8g6JvI4/1JhrH6ReZPlGRZBtdnUI039rbjL11VaeKp+5scSeNjWEh/cnyvtw6htxpcq6HYhQPq86sATnHxZlzn6cKQCKNW6uOgtT3VZR0dwFlx5SXw5bcvhBx8/I8Oe0K/2ErAZjvYFRH9b3zkt5Sjg6WPOSaWA8UrnRZSjtCX3IzzBNd4/G7EnePDEr4uL3sS73Fo/6Vof4Oml43Imc5270lMGdHr3AE+w9MI4aMzB23joGRJQDEFrKNE3SNnIA/ysMzHU61RRZQlCOrtFNKOvEp5G7xcRq42gAePTrqIrgsFVnpsgaAGvgHC8thbYLIZ6B0+qWvUVLE8q1KgL3jscmnY5hfhUac3kH9+v70sCgkKxril6eKItuQetPoYd6BQwvpCiJG3J/Wh5gks9VjOhcetMIzMKi3Ilzr8v1Rn7VeHpK40RgKeu1yrYM8gVqLQXcefK0DjcjtowiesYNCpcK+ROBGZ96QRPsFx034rlf+8R/vHfmpbM1xDYrXn4kP8k1SrBW1fAWyQrJ6CmNfahA7pUgdQ9V3rlrvc2sSsFnjpKcny0BNbLYuP5udLLYqfRAodTpcQHJkxbcvsby2BL1i3hP5nIUgVusrClPtzx93OUFuxrL+X4c8eIbtvmYksVFORjkeu08AR/eLzdh6sVHGSUnX4jO+5M+M0tkS6UNtPBE31eteCpLd1oOpP1s8tzYrJT6+qihye4VXbJdhzj2oZTMTc8pLZn+LMYRissyvAxepW2ZzRHe7bQ1DHJ0zH67ErnneupP8DSEncKXargXKzALd54K3/rKopdir7kHtx2dCuMI+s80cQ8wXDLs7TjM9E4LQZHd41EcM6q1/AkT/x3GpO12ZNilOlB7J7gqf2F8+qR0OiFR8yd+Xb/bpo8HNI+FtUpyLkp7ow2pKH3x3UBviJ3wkuCW2H4U9LFH6AR84/w8MUKxHkY8FbK0AWofbClCphrL+J57+cjJmAUF1as274EXW3A7IjeGIix0DYfv0FfeW0eBY2cteuyg5ubg+kfyxevXzutd/CkqlX08ETfZlxpVWo0pVycxYDGLjtp4eLuOMFxdAAAHlRJREFUytVfORFizrv2mPhUoR0meniCaUvuQavGmJPa0PBJG/625vPtLmxZsWaFLkVJ2pJ7cI/SrTCOrPNEY3lC7gXv/dPxmLYxq3j8v6eoC0/fYIykFycxmTPMs2AAT7SXLTg4GBVojYjhjbpLPvH16X1teXplVRX5hFxneIKby8S6AqvfignXXXtDQubtDYG2Wt6200V+Z3NfVihmAxhufXcLWyTT3/NYbrk0nQoiMNzRlPVUvE3kpO1jPy88xKKkhkQnREraklvq8i1iPOf6WmkIeBP93bYkpKY2UStGCqirSD4e5jjeE10zU+Dvi01F9PAEd7x/m6wfwdf1sZ4ULDTIe5sq46sLT7R51YInGK4KP/IDU0PvYozSKpf0V1YP8ATDbfWJtkG/zDDX1jCbu0DwD/8FJei/433yI4OfbWdqmkz/0eOcT3m6ua3C8gTD8Ie3QWdvLNMxnTzZ+Q/X0sROv21HV3KXgHGlXtD9tl2P8ISU1Cx/mf1SllXT0I66Gtm30d/9U6pD5Ya8wPe3KcxRetey1ZqRsXJ6gicYbq/JuGGwaf5krdETZi7fZyouUbqesVJq0l2OLJsyhojgPqr0ayx1aU6HFv0wmoGFSP/ig1mxZMZdf/oMOQOLoUFxYYsw5z5n65zxo7V09X41u1+msLe2VyY5nVg9c4KGxriZa0975ySbzaRM+Wq5k7pvFT080beZHBhVarS9ibc5unoaeyRLa9JPm87wpW/V/DrRAzzBMF3J9Frhi2TOmTha84fFv7ukx3f6bTu6kul1VlpQFI+VJ37brkd4QrRsri7JTk3JKq1vhxG37JizcZjC33uM3nqsZzK1Tse0AngiL3mQGDoKfCi5rSNw/ONFveLztt86pxQw3m+1DPKC5dnO23VHMMfr/W4uUdulNMj7/GXN/xi2y4i9OF69pcI/5Qf89cvM0UzNn/QjXpPfEb6sAd81N4oLm4SE1+67tgVU/r0VqA/+dTikp4iB+q7taY/9k81k7vCthQE8fdeBAJX3lwIfxLHOowW2y2Lu83JkyA8Al1X3E0gBeFJvDD9XZQSYHFixxDxdvfP/g2c1yALR3xL2SXYycJvBMN7gRK6KTq+GPOyP2RvPXL/7nCa0iL6EAXa0i61lgLUPNKe/FahIDUAdud4eNgarx0MjljkWdB9U198N6Vz+C6clTOZiOyRYDbjtOosDtoeGAh1y2bMHB8NddX3Q9Y2icxQ/0PVVOwjg6avKiRZ29T/5MjZao8FB1qZicHTGGS5ZZ3Te0Nj46tWrX1/fAV8igKcBP0T93EDkEU7kNWzUhFkrD9s9LB8gBtUW8QkWc+IFKeJxBfDUzxcBKB4oABQACgAFgAJAgaGlAICnoTWeoDdAAaAAUAAoABQACvSzAgCe+llgUDxQACgAFAAKAAWAAkNLAQBPQ2s8QW+AAkABoABQACgAFOhnBQA89bPAoHigAFAAKAAUAAoABYaWAgCehtZ4gt4ABYACQAGgAFAAKNDPCgB46meBQfFAAaAAUAAoABQACgwtBQA8Da3xBL0BCgAFgAJAAaAAUKCfFQDw1M8Cg+KBAkABoABQACgAFBhaCgB4GlrjCXoDFAAKAAWAAkABoEA/KwDgqZ8FBsUDBYACQAGgAFAAKDC0FADwNLTGE/QGKPBdFWirL6/48DVb0CJ/V9k6MH4T9Au79bmm/G1TxxcW8p2yt9S+rZQPslHopza3NrwrJ181H6kD0tZYSR4pr5J/9bHupx5Ru/CN09+6R1/1HgTw9I2vFlAdUGBoKvD5fZqHwdrJoyYZpn29Dla6LTFiD7e8+PDT1yvze5UkD93H1JqzyzisQP69mtDHegscFzGhYdoG8c19LOA7ZOu3Nufb6P0/4sU6HUXtWvmNDcSR/8fcF/yVh7nfekTtwjdNf/sefdV7EMDTN71aQGXfTIG2OklmxDaRwwRv3rhbblsTUqRy5JewkVdTxk5Py/9hbwFvYsCNfSk5z1rxgwP6X9Mr3yypuK7LV1q5bKtSjzw2xUnjGr/eD5GrqpcU69PL4APTRjInrDBwERcqLE+1Pp5shunFR8h51DT84tGG4Yb/h70ZnGkXS8iSlBO1ot28SeNd7DK6t3p8KnlisvX6TA1D9nDD/2NwTomJIVYuRXmr3Go6Bzmf+t6WXqV8Ut+2qH2kptHS2itlgZb754xmjllinFjbmwoq3NdCDAZj3Nk4TIZKr83DR4xgsPRjeyrlheMy9MfpsT9jL0i7z/A+2cfOLrJQlXqv/HdN0hi7xDLj2yKsqlY1BO6mdIpITryQSu1cd21WUw1qMV3T+TZ6TOZGS0lcXFzcw7z31BOaX2cge+OCDOYy1YcndVvVXY8otX8qiby0ZfYE1jBMkIOR6tz+WWZTCf3I/7/4KHWKUkUvkt93jFQ2tO/3IF7k+8wSO69y7E4B8KRSZ3Bg8CrQXu177zpL4LAuLsY2J81ZJt7qz9MIEkta0C41ZewUcBfEpfjmZ/jmpTsm+f/oxZ1w9/HLgd/fmsQlAu6xki6TnFy2lexRvowvi1jry2X5icKbvlKXVNWLF/8p32YZi6n7e3BpJwSVBwrZDAvDFOQ8ahpueHNfmO6PvO/u1qSBJ/r21wf+Ysye6sPzSEOLSk982QUruylAniVCqvYzcGUzLH63QJvxoPKrGFWofaSmKa1ozOStYTO1D4T3YoZC4Gn2smVauoYZSEkNgbtHrF+/DlIDnhpyxT7Yi7NJA1IJT3lW8yFIvemW0pX+TqpqFToxzzrqiPcM/xeU+q6nBqmpBn0xKDwdEdOhySvnlb2Ap6/SKvitcPNISHeHqbs3pke8WvdC1WMRcrqXwVIImrDjGpo1ukDJF0mvhqqj33eMVLUK39+XexDPmnczDpori0S/xAB46kFncHgQKlBTEDRW4GJQ2qiwV3wsOHOLuyizEukNCk9b80mrekdZrlBT4GSMHhzQ3VUFMSg8UXoEt1bG6gm4S7K+ij0FhlXVi4nVKD7BZk44HtnVmtIadovN4Jk/Rs6jpikilxiP7ys8dRT8M4qjxy2nlNaLZFt4AJtha5Xbiyw9nkrtIzWtlLHjhetKFvMny1x1SA/NicCT7jnOEY15NgUw3CQ+xFppablLHXhSVCy9MHZIwdNaQYWic71O0apBX9pXhydFdV/Qqo6YMyOhGRY5isJ6k2q7fRCCZpp9xXsBhafvNkY99r339yBeJICnHrUFJwxmBZpF9y01ojIJcOhoaW1qbIelUluW+DECSJ3hCYarE/QE3L1FmGEKhts/SLPCNwbZsb1tpoUGXMx/U0eVo7XC75FwoZ/NxACvU3lvk9KcWd5iCXZCQ+p6AXdPocKKkS9zYwlui8nstCW3N5Y4xHrP87PWEPC0A27sS31aiH+/rbAK5rJIxxyZEHjYYS3rAk8wXHJRyNVIKMJr/lQllonWBjtM8LGdJfI9++RVpWLmlvuKuSyxLKtUsivk+nih05IoSUQ95qDpqV609LboM2ym9t+JClIluwuLg8YybHjYRzo1rThDFTxRnGsMjs7ZQkUOMtX25AyDs8y6u0m0rT7JPnjrrGs6GqZz9LwMha+7ujq7hafYk0bsIw9DDtpOmehsKKl76uQ5byz351NZL8nOyStDzwtWTjKbPNn5JP+V9Ko1W+t2Atkkah+pafIENFEj3D6CqWdDDI7ywW62EHgabRAu2j/iZ7fXrZI/xyyykwo2kvBU6roKgnYENpA587hzIOhoJLmNJLqdmHO5M0lvDTUx3wrXW8mtwzJQdhNWCDZC0Ebv3FiznT9N0NTS1dtpck/J9igvjDD7fcVMbU0N9pT5G/Xdkt+RMsLvfZDMNzOijbfNHj9aa/L8HZzwEuzG6alVPUzMtG3GNelWDfRY29tH14+vmTGWxdL8YcG288LMzlfOd4AnNXrUFnkUguZY5SmNObbRY49guFt4evDHcOiw/a0Ds7TGLz4vKc9x3DJZa6LeyeASchDlBUHnNv+kM0bzh8UH+LKHxlMhTeIS+X5j1F4eb3tk1cyJGgxohJau3q+GYd1a0np5Dxbkz5wbAc2LVHp3Iza6q6q6XtUhsB8oMKAVeGcdzJ0je4u08fN7vwfOYwRczYDQawkerFBpQXfw9LEkfKLA6uxrDChaZSl8DS+n7dJEtyfJ3DiBjsBqfU4V8YnREhNvz/Jy2iZNdMuVXhILt4vVhyf6kmsFETyWr6dBRrowX8ZPCZzjyZ2R9BI1ocsfF6bffJJ+Mz1wqoC7IiENSSPv3EyM97rCEwqIU1NfowMlj4p1YPm4HUiV3nySynvoNVnAW6foEQpPt4W77oRey0njp99eIeSOCk14gojRU71o6eX8NUzmTj8lwCSujxiRDsPeLh/dpKaJ4zCsCp5w55q/8P6+sZ3gqaOpqu5Ned2bV2lHGZxFhkVIGn3X4G7KVhnn+riRvD3nY2+6P7I67jKVYbKFX0mMIF63Snia6n6Zl2i+2YI92/n46Tj3825TGaZ/3scckq3Sszw249omfckNfrzhFv6WlTwleKL2kZpW9BdN5VjMYY44EdXF/drpNGITgSfmyahqvx3M7cKIf7Xn8Z4iwES47foOT1WyAHfkZbJDB4IW6fPRDXd395DH+Gjibh0fH5OtWlC38LR03balv1915DuZHdYbAw2bb/WMcGhV3z2iDWnM3Wt43d3D1eLU8vHQyJUuhcQooPC0dO22FQdNnPjOpkcWaULDFljmIod7alUPEzNtm3FJVcFTU9qV2Qym7uZz1q5uTmbHlrChUatcyTajmb8DPNH0qF1ehT7g98p7LwTN5MSTT/tV4/eCGj2igSfdNX9ZOnM2ToBmLdp/ysbp3Go2pHksCnPrNSUYTIagcStOW7rw7f7ZtHzV8slqwxNNj4iLvnvcRz6+aceoxGP1SGjsslM8dy8fgTNnx/Th0OR/E7txRPbuHqytCQh84R74wsTgPjQ3Xj8ASQO3HTlWIDFUFCg38+euf4LAf+OL0HECh10ZueJCyQ4/HkuUiMzjKFhsyK4ob6wvb6x5WpZ+LMiSFRAlxT71W3MPenJXZlcTn/Kt8QkOrFvRyZg6bU+PCrhz0srx4J6OSodQS3UtT/Qlt+YeEHDX5JAM0p5f/JCb8/wNdVRUuc9QeCJ6VFdUmccT27MEfDMMGDrehaRE25SS34aabz/gsUITEY5EXig8CUNEhL2suiBgjIDPJQx3yCmq6kXzF1gtYDKPRypMWehedf+ogicy/yuubid4ahbt7BLxTQ0Yr886NoKzzuE9OYIJZyzZP0QqxRPDsEp4WvEICV+X3ZvPuCl8D8MdxVe0OGsc0BCl1qd/juDM/rsI/yz+/M5xIUcJnshW0ydKEd7cI2qkP4s8isATdDSyo0KwljVz5uSppplwsf2SrwBPRA2qoouI4zAsM57UPTxp7gshordqQnaNgqYYybBcn58GXr7Au086VRtEe5jQAmsMpGHM8qS5N7gGr6PKd/uITp4jVa1C4Wm5TRYJCkii8kOXaPbu2ozXpgKe6kP2DYcW2xcTV448Vl8H0lYOs/8O8EQOQ9ceNQTuoJoMFWk8gk2dHtHA0zLHF8i9YDQF2ihA7oWHf2tCC+2LkQa1io8Nh3T+isch7XO+9XyoEzx9hzFqDN4LQctcSwnJ2vJEFmZOEvIqJPbDcC/vQTwjcNspFASpIaiAAp6eyPgEJXTIkh0V8ER6vjwt/yfgsoOCPaqIWOfKuLkCW/0X9ShaIX8LcnxZgoBbmI2nLmmVgHvoBfHtGobTkuzVhSf6ktuLDLy5upLsF62qMUQVxFCftkN7NMrX+8LzKgKH0DHu+FQnxzsVI3Vk+YgJHwwKT3dSyM8buOrhAgHvdCmlGarqRQvO5/3EZJ5QuCZ7d0X1AZ7a32UXJsQVJkhidjE4P51MQ9Lo+xnmjMyM1mOYGYTj5qg35XWFTjfYDK9AkkvRFqqEp/VJCLDmSpYxfIIRV9hLMx3COVgq3cLgHBIRlwoMyy5Y9AWeXvF/ZjJ3oaWroxYKTwfCPsGvkIfnfriY1g4X2i0aGPC0yl0xMRXbLISGHQhTyAPDnz/WEssiRf81CdL4E3dwY/C00kXxlEaOxWxo+PH7FGscLTwpMAFLYdO8kppdUYM8rAKeMk1nQFonbiuoLN9xAwRtE1KvnIEFT21vs2ORl8RiIwTp/uGNbiB/cvF7QY0e0cDTWnR0c7lzoB1+yL2QemUi4RxE7Z27QsjIUTjl3wmd4Ok7jFFb9GkWNOGg3/NGyoVEDjs10ct7EM8K4ImqIUgPOQUU8JSeZM8Sy7CncIoyPBTwJOAuT34W//r5/XQkVNzoHeVOq4iZTkUrLC3w9ca+YXXBiBz1Y57oS4Y/P8n21kbQx2pS0I1N0RGmT0peE1+B8THqUju+H7U8YT2Kf12SXlVb3UZBH7jtRdHdtX48pagpMk4LszwRKiEFtlTGFD9JbaSUoKpetPpvDk94p2FVMU9pd+dSlyHAF0RAzUhEVpjG8kQDT4Xxaxmc4+EKG0dOp5gnSvl0yV5+cKPwtF/UAsPyiuLC8rrP8MCBp42UB9tLEbbbHYjPpy3PgwxWTGQqzaAs/Qe4LljMEyXqu+5ZtEiUjLvO0ZNo4elHgwASFJCErBQ3gSh07z08pV6ZpNRcbAM1upDFDix4IpqlKuZJnR71DZ4QfIf23ybiRGE4q0vM0/cYo9Zc+1VaEAQNY42bobd210kjj4dlVJonBIN7eQ/i+QA8kQKCxFBUQC14wp9Nay3QF3J1HhYqvkBVxEwX2B7IeR7/mvouL8c4pgtG9A6eaEpGRuJzbe1LcYHMURZ99oHnFE/ulEfFikWTaNxnXWOeKOPaUZ241JM7WSzxLSnGOiWQUKxlXeGJkhdPduk19ZRC64VM5tE7nTiPegZdug+WJ6I4GnhimB91xc1RhF3qNeFqxbP3xfJU/HA9g3PstgKesgyVY56IpvXwvwR9lj1UcdHRn6+AJ/K8AWN5UgVPHU+tFjCg8es5PuIYjHI8DkyEaOCJ7BqZoIUnimuGzNAp0Td4Yu91UaKy2NiM19TZd/DBU0896hs8IY5jaF+Ywrr9mNM55uk7jVFrTUFi5C2P62YX9Pcu1WZA2n/GKH2KYpdJL+9B/NoC8NTpJgObQ0sBBTw9lfFZ4cnYCow5aS4szDml9LRd++MUZ5aXvy/5vRVxrlkTweNdhKlLWk3jtmvK2CHg/pKnmBQzU5xYwrvxWDH0JXeuquOpzI3ldSeKYgBSGXtEC09lOV4sgY87JcAmI8VR4Wr8Ynh6d3Mjk7lJ0MeFHvoBnhC3nck/8VThOovbR8tTQ8ZhBmeVHdnVJtEOw7647dKNpjFHnyE8WN00TnlXD/BU6b0FgjZ4k62ClaYxvCgVjirsqCpMUTSjOxBBn7ZT5bZ75bQcglbzFT49WHZl0kCHJ8Rtp3EmjvbKGVzwpE6P+gZPaOTZfFsichKuC9jO6OS26xd4Uq9HxJXb/sR8DjTixN2uX+16eQ/iBQJ4IpQF/4ekAuXmAXjAuLwkXNvT/XxJRVFl9qkA7iRpCWI0UIInGK5L/lnAXZxBPLzfknvAkzs75RXxgEZbdm74oYQs/EOi7dkxNGAcNz50vHcI5VJApPSKL3ei5BkeI4EdjUjDnnmD6Uv+kHVM5HH+pcIM/iLzJsszLIJ629cjTf2tmPpFGB1BWniqfubHEnjY1hJTwudK+zBqm/GlCuiWGFRVL3b5JF/WZY4+HKlAxt5cVciSBDp/FlB7qZy9a8A4cVyV5aku6+gIzoIrL4kvxW05/ODjZ2SdVgboi+UJ/v/tXX9ME1ccvywN1UggtQEFIgYlBg1MiYKFKOrQIIg6TXSbGqdDHVMYuEXHmOLkp0WqQqFFWBmFiYoNMCwTB/JDEQoVpDiFKRZEQBERVBwWLLfctVeuwF0plljqu396vbv33vf7ee/1Pn3v+z6vK3VNiLlVElP4+MH9tuKEc55zIsZBnpriVlCpa8+qrQXAnBrtUwN5gst+soDou7KVOlvvGlgMCFrNbVHLClnubuxfMDrOUoTpfCEgqUFC8kTbLsCWFqAB43a/oqpecGeKNwQ5MxuwCXFZQ4wrpB15IrIKfW2/34uZAI3uzK+MILvgCqzvy2q4+7b7pasIAoLoBJInAquG6nG0WlDcJZq2G4tH4yNPcHOSOxWyWBt6ufrf+3WF8TuXz56pU/JEgAa5Ry3pu5ycA/OGRpoaWS6Q0e6cET+Z2vZBZSVI00ohR5EAbSBgtd1QywRnBoJAxxlBlKMYlf8ZfJFVyKGjMdRml/7MVYy+DCNPcK8gP9o446/ryheLrLKca8o7tbqkhHtHFF2aastjuohbMVIju1YSi0oVlJ2tK/slL3WTkIMjT4NSCd+Md9LtWjG3rixYyKbxYvc3Yz/FMGnO8rYTmSeMz6UdqkGkChLFWcv5UZb5EjUVI3nzkYwouiCbVaeQKmioV0Suk5In+NWtzfwos8yLIbVVybVF/jm/bbicgLN5DOSJqFxFgxmoCplPNV6T0Ii9KLVpR7Lr358wn84OPFOhUAnPuN6FsLyORzlKCXJEqsDKU6i8e/WpCk3CmCdYJv6ZZUGJ8NpfkJxUxvLnOlBCVka2YDVIpjCO6DyRxDzB8Nu7lfvsQxS7wdiuLuT9GK01eeq9cdiOarw+BTcoowEwTeRJ/jDefRpEW+oTHs89ddh7rhFkvfcKPsgZ+cdQ5G8NmTJ8T/OUitylOAnq/ptBNtBUJx+mUqxAeE9BPDvEqAA1XyFVQPUIUqbNr0cGatGRp5VrNy9D1QbCfBh0iLKUVa/sRo9+X28CTXPYGhybmBgb6rvC1dPDTjvyRGQVOXkit1mJNBEabyqCHCjQTLfvIhPOcqL8Vs2CqIsjbmEtB008geSJwKqxeEREnmByj5SSAaMqjCM6TyQB40hfSN0+XxnTRv+Myf1h3ljJ01g8ImyxpB4N1IR/SoFmexyMQaQKOGG7nWkQbUsGqluD62Xa90Fl4v5qiY2j0Cm4gQukCnB4glNDQUCWW8A0yavGpjH6n71orero7FStkBtOnuC+FqEtL3rHA2zqTv6ytCbb6wLLLJU1X/BHYF3TE2zUBoFI9vScQiQzI2VvXWtZFZ6IwPDgm9v/CDcJ2Nb8M4tzLkVK1fddJ835bXd9ZEGKY3q0KY85KyNxQ6lI9AZfMFJ495PyfVlxlimoZiYvI13xkiMnT/Dgs/Zyv1yuLf/knMy0gHvtIjFXO/JEVC7WYjpzfGyopoyggrahcCDsnsbPrubkPRwnc5SRGB2dsfcOUlHiK84jg76Njs5YX4FVK0xMnmB4oOcG6+LGBeHWpmGOzrxD3Ie4JQE4+U1VEdjedhrJE+JNX29TbZP4dtdLOVxzhGluno3u3afRT/SB3ob0HfOoJoyIWrU3MnliTeQJhuVd1ckB3k5zzWhW9iu2hQqlQxRTlXVXVYKP2zw6FsG9R23zs+5K9m4XGxpFESK9ka8YxRIfG7n1GfLEOjTQGyVPG9Ik+Uc+X2RJQwQJw/Jxwbnyjpvsb93trUxNLew9DqRKysPstSNPMDy6VeTkidxmjWgMtBXH7HG3M59mbDZnibc/t6x92F+CCSRPMDxqHY3FI0LyBMNkHiGjO8MPbG87jeQJwbLvubRWVHG7uUeOTsvSA4sUCH+4OnrbeDl02/IFliYUiEq3WeTpxyl/pv4rOq4+qGo4sso0sYuHkOKYC0aeVKCAE4NB4JU0ezYvzvdhz4jBWt27qBYwrvvsJ0uOvbXxm22nUi0ZO8MLxzwdNVmcI7Tzv6ytIeauxcMmBAke768/f3CjPY06fYlf7mMVkyd4eDJcRsmTdxo2azcZTNaBjSh5+jKtBdUzUP9rNPC6A71aFeGqxd52OrBJH7LoydxiBDGGYqD0waYRNui0DwLyNAJfcMEAEHglvBZP47HcCvKZEjGyAXDL8wkiUoA8Yc3lXWf1+eNfr1wWXoVdMcjPl+IL6F7C/HJ2QOICyjEv9nDtcgK3e7N8F67zP53XSBJaRJBUPy+j5Am/2k4/zdSxVfUxjCnYYXzgCj731mQv7M4U6rZMQ6lnvIvq509E59GJ3NSkmAB3S2iqWxxJ8KJ60g/zTad9EJCnD1OJoNSJRmCwV3z37105HFs+qm90VTK09ZdOiwbkSadw6n9myPJAJObJ6Lj9Qq7f6QfthjCINC7YP07y9FpaWYQdJfcwdXUUwL7H1didoiJJ++jB+eOCWk8TIUs4keMTEyuHVd+cKmn9qPoCIE962iyBWQABgABAACAAEAAI6CcCgDzpZ70AqwACAAGAAEAAIAAQ0FMEAHnS04oBZgEEAAIAAYAAQAAgoJ8I/A+q7Gq+IgkErAAAAABJRU5ErkJggg==;" vertex="1" parent="1">
          <mxGeometry x="100" y="976" width="591" height="90" as="geometry" />
        </mxCell>
        <mxCell id="7tszo_fawbrAFX8Rzfel-19" style="edgeStyle=orthogonalEdgeStyle;rounded=0;orthogonalLoop=1;jettySize=auto;html=1;" edge="1" parent="1" source="7tszo_fawbrAFX8Rzfel-18" target="7tszo_fawbrAFX8Rzfel-17">
          <mxGeometry relative="1" as="geometry" />
        </mxCell>
        <mxCell id="7tszo_fawbrAFX8Rzfel-18" value="文件上传" style="rounded=0;whiteSpace=wrap;html=1;fontSize=16;fillColor=#fff2cc;strokeColor=#d6b656;" vertex="1" parent="1">
          <mxGeometry x="336" y="860" width="120" height="48" as="geometry" />
        </mxCell>
        <mxCell id="7tszo_fawbrAFX8Rzfel-22" value="" style="endArrow=none;html=1;rounded=0;" edge="1" parent="1">
          <mxGeometry width="50" height="50" relative="1" as="geometry">
            <mxPoint x="51" y="400" as="sourcePoint" />
            <mxPoint x="691" y="400" as="targetPoint" />
          </mxGeometry>
        </mxCell>
        <mxCell id="7tszo_fawbrAFX8Rzfel-23" value="&lt;font style=&quot;font-size: 34px;&quot;&gt;接受JSON数据&lt;/font&gt;" style="edgeLabel;html=1;align=center;verticalAlign=middle;resizable=0;points=[];" vertex="1" connectable="0" parent="7tszo_fawbrAFX8Rzfel-22">
          <mxGeometry x="-0.4312" y="-1" relative="1" as="geometry">
            <mxPoint x="-17" y="-11" as="offset" />
          </mxGeometry>
        </mxCell>
        <mxCell id="7tszo_fawbrAFX8Rzfel-24" value="" style="endArrow=none;html=1;rounded=0;" edge="1" parent="1">
          <mxGeometry width="50" height="50" relative="1" as="geometry">
            <mxPoint x="30" y="850" as="sourcePoint" />
            <mxPoint x="670" y="850" as="targetPoint" />
          </mxGeometry>
        </mxCell>
        <mxCell id="7tszo_fawbrAFX8Rzfel-25" value="&lt;font style=&quot;font-size: 34px;&quot;&gt;接受文件上传&lt;/font&gt;" style="edgeLabel;html=1;align=center;verticalAlign=middle;resizable=0;points=[];" vertex="1" connectable="0" parent="7tszo_fawbrAFX8Rzfel-24">
          <mxGeometry x="-0.4312" y="-1" relative="1" as="geometry">
            <mxPoint x="3" y="-11" as="offset" />
          </mxGeometry>
        </mxCell>
        <mxCell id="7tszo_fawbrAFX8Rzfel-26" value="" style="endArrow=none;html=1;rounded=0;" edge="1" parent="1">
          <mxGeometry width="50" height="50" relative="1" as="geometry">
            <mxPoint x="20" y="1130" as="sourcePoint" />
            <mxPoint x="790" y="1130" as="targetPoint" />
          </mxGeometry>
        </mxCell>
      </root>
    </mxGraphModel>
  </diagram>
</mxfile>
